<?xml version="1.0" standalone="no"?>
<!DOCTYPE svg PUBLIC "-//W3C//DTD SVG 20010904//EN"
 "http://www.w3.org/TR/2001/REC-SVG-20010904/DTD/svg10.dtd">
<svg version="1.0" xmlns="http://www.w3.org/2000/svg"
 width="792.000000pt" height="792.000000pt" viewBox="0 0 792.000000 792.000000"
 preserveAspectRatio="xMidYMid meet">
<metadata>
Created by potrace 1.14, written by Peter Selinger 2001-2017
</metadata>
<g transform="translate(0.000000,792.000000) scale(0.100000,-0.100000)"
fill="#000000" stroke="none">
<path d="M3988 7884 c-3 -2 -65 -6 -139 -9 -74 -3 -154 -7 -179 -9 -100 -11
-149 -17 -171 -22 -13 -2 -44 -7 -69 -10 -25 -3 -97 -16 -160 -30 -180 -38
-195 -42 -195 -44 0 -1 -7 -3 -15 -5 -8 -1 -35 -9 -60 -16 -25 -7 -47 -13 -50
-14 -3 0 -39 -12 -80 -25 -41 -13 -77 -24 -80 -25 -3 -1 -12 -5 -20 -8 -8 -3
-62 -24 -120 -45 -206 -77 -484 -213 -675 -330 -49 -30 -100 -60 -112 -66 -13
-6 -23 -14 -23 -18 0 -5 -4 -8 -10 -8 -5 0 -42 -22 -82 -50 -40 -27 -82 -56
-92 -62 -19 -13 -160 -123 -183 -143 -6 -5 -37 -32 -69 -60 -68 -58 -303 -291
-354 -352 -96 -113 -118 -140 -172 -211 -31 -42 -61 -81 -66 -87 -21 -25 -163
-248 -204 -320 -153 -269 -279 -585 -361 -905 -20 -74 -38 -153 -41 -175 -4
-22 -8 -47 -11 -55 -5 -19 -13 -63 -21 -120 -3 -25 -8 -54 -10 -65 -5 -23 -10
-64 -19 -155 -4 -36 -9 -76 -11 -90 -3 -23 -17 -384 -16 -420 0 -8 3 -27 6
-42 2 -16 0 -28 -5 -28 -6 0 -7 -5 -3 -11 3 -6 8 -43 9 -82 4 -90 14 -218 21
-277 3 -25 7 -58 9 -75 1 -16 5 -43 8 -60 3 -16 9 -57 13 -90 9 -66 11 -78 14
-85 1 -3 3 -14 4 -25 2 -19 15 -84 23 -115 2 -8 6 -31 9 -50 2 -19 11 -55 18
-80 7 -25 14 -49 15 -55 1 -5 6 -26 11 -45 5 -19 11 -46 14 -60 10 -52 111
-359 136 -415 5 -11 21 -49 35 -84 15 -35 33 -75 42 -88 8 -12 13 -23 10 -23
-5 0 12 -34 68 -135 29 -53 156 -253 188 -295 10 -14 52 -72 94 -130 42 -58
79 -107 83 -110 3 -3 17 -21 31 -40 15 -19 37 -46 49 -60 12 -14 45 -52 73
-85 48 -55 263 -272 318 -321 72 -63 163 -137 234 -190 44 -32 82 -62 83 -66
2 -5 8 -8 13 -8 5 0 38 -20 75 -45 36 -25 67 -45 69 -45 2 0 39 -22 82 -48 84
-52 347 -184 393 -197 3 -1 21 -8 40 -16 19 -9 64 -26 100 -38 36 -13 74 -27
85 -32 20 -8 205 -66 241 -74 10 -3 64 -16 119 -30 55 -13 114 -27 130 -30 17
-3 53 -10 80 -15 76 -15 86 -17 145 -25 30 -4 64 -9 75 -11 39 -8 182 -24 350
-40 121 -11 547 -11 625 1 47 7 105 15 130 19 50 6 103 15 140 22 14 3 41 8
60 10 19 3 51 9 70 14 19 5 51 12 70 15 19 3 53 11 75 17 22 5 47 12 55 13 8
2 15 4 15 5 0 1 9 3 20 5 11 2 61 15 110 30 50 14 104 30 121 34 18 5 37 11
43 15 6 4 20 9 32 11 71 14 506 197 521 219 4 6 8 8 8 4 0 -4 15 1 33 11 17
10 59 33 92 51 129 72 330 202 405 262 19 16 40 32 45 36 16 11 126 104 169
142 151 134 376 381 456 500 8 12 21 28 28 36 6 7 12 17 12 22 0 6 4 12 8 14
12 4 112 155 112 168 0 5 4 10 9 10 5 0 13 10 17 23 4 12 10 24 14 27 15 11
148 267 213 410 63 139 184 478 201 560 3 14 10 41 16 60 13 42 76 320 84 373
3 20 9 54 12 75 3 20 7 48 10 62 5 24 7 45 19 155 3 28 8 66 10 85 2 19 7 83
10 142 l7 106 -140 -1 c-77 -1 -138 1 -135 6 2 4 12 7 22 7 31 0 125 53 159
89 58 62 86 135 88 226 3 185 -68 272 -283 346 -94 33 -161 77 -148 99 3 5 2
10 -4 10 -6 0 -6 11 -1 29 4 16 6 31 4 34 -3 2 9 18 25 36 24 26 36 31 75 31
45 0 53 -5 94 -54 6 -8 12 -31 12 -51 0 -19 3 -36 8 -36 21 -4 189 -5 198 -2
22 8 -3 151 -34 203 -56 91 -147 142 -257 142 -94 0 -112 -4 -174 -38 -54 -29
-105 -83 -134 -140 -14 -28 -34 -121 -32 -149 4 -44 18 -106 26 -110 5 -4 9
-14 9 -24 0 -40 119 -122 245 -170 49 -19 115 -55 130 -71 9 -10 19 -33 22
-52 2 -18 5 -35 6 -38 3 -18 -17 -71 -33 -85 -26 -24 -85 -42 -119 -37 -59 8
-111 77 -116 152 -2 28 -6 54 -9 58 -11 10 -195 8 -199 -3 -4 -11 -1 -56 7
-115 5 -38 35 -121 46 -130 4 -3 15 -20 25 -37 11 -18 22 -33 25 -33 4 0 16
-9 28 -21 26 -23 99 -58 124 -59 9 0 19 -3 21 -7 3 -5 -183 -8 -414 -8 -230 0
-419 3 -419 8 0 4 8 7 19 7 36 0 112 42 158 87 57 58 92 134 94 210 7 195 -69
293 -286 364 -119 39 -157 75 -151 139 6 68 42 100 111 100 27 0 44 -8 66 -29
16 -16 30 -37 30 -45 1 -9 2 -26 2 -38 1 -13 4 -25 9 -28 4 -3 52 -6 105 -5
l98 1 0 52 c1 30 -3 56 -7 58 -4 3 -8 14 -8 25 0 59 -88 161 -167 192 -50 19
-144 26 -208 14 -49 -9 -112 -46 -158 -92 -110 -110 -116 -314 -14 -418 35
-35 153 -103 192 -111 21 -5 111 -49 128 -64 64 -57 50 -182 -24 -213 -102
-41 -196 31 -201 154 -1 26 -7 47 -13 48 -5 0 -104 2 -218 2 l-208 2 -29 -50
c-57 -98 -120 -144 -219 -162 -134 -24 -255 26 -331 136 -20 29 -37 58 -38 64
-1 7 -4 26 -8 43 l-6 30 419 -1 c230 0 425 3 434 7 13 6 16 20 12 75 -2 37 -4
75 -4 83 -2 54 -58 199 -104 265 -64 93 -204 184 -312 203 -54 9 -199 8 -242
-2 -175 -41 -306 -154 -380 -326 -38 -90 -49 -273 -22 -370 17 -61 62 -160 72
-160 5 0 9 -6 9 -12 0 -19 98 -119 152 -156 25 -17 78 -42 117 -54 39 -13 71
-25 71 -28 0 -4 -377 -4 -487 -1 l-21 1 2 501 c2 537 0 521 53 511 l25 -5 -7
59 c-14 128 -18 158 -36 274 -5 36 -11 83 -13 105 -3 22 -5 40 -6 40 -1 0 -3
14 -5 30 -6 54 -15 129 -20 165 -3 19 -8 53 -10 75 -3 22 -7 50 -10 63 -2 13
-7 50 -10 83 -4 33 -9 70 -11 82 -3 12 -7 42 -9 67 -3 25 -7 59 -10 75 -2 17
-7 57 -11 90 -6 57 -23 100 -23 59 0 -10 -9 -80 -20 -154 -11 -74 -22 -155
-25 -180 -4 -25 -9 -56 -11 -70 -2 -14 -7 -49 -10 -79 -4 -30 -8 -61 -10 -70
-4 -21 -16 -109 -20 -141 -1 -14 -6 -44 -9 -68 -4 -24 -9 -58 -11 -75 -1 -18
-6 -52 -9 -77 -4 -25 -8 -58 -11 -75 -2 -16 -6 -46 -9 -65 -8 -46 -15 -104
-22 -162 l-6 -47 39 -3 38 -3 1 -300 c0 -165 -1 -303 -4 -308 -3 -7 -43 44
-53 69 -10 23 -283 429 -290 432 -5 2 -9 8 -9 14 0 5 -40 70 -90 144 -49 74
-90 137 -90 140 0 2 -5 10 -10 17 -6 7 -18 23 -29 36 -17 24 -23 25 -135 26
l-116 0 3 -630 c2 -620 2 -630 22 -637 26 -8 3 -9 -273 -11 -122 -1 -222 1
-222 6 0 4 10 7 22 7 12 0 60 19 105 41 107 53 192 143 253 266 23 47 39 88
35 91 -3 4 -54 7 -112 7 l-105 1 -20 -41 c-122 -239 -471 -236 -582 5 -14 30
-26 64 -26 76 0 21 1 21 433 20 l432 0 -2 64 c-4 187 -63 330 -179 443 -26 26
-54 47 -61 47 -7 0 -13 4 -13 8 0 5 -17 16 -37 26 -126 61 -312 70 -438 22
-89 -34 -149 -73 -203 -131 -71 -77 -126 -181 -136 -258 -3 -18 -5 -32 -6 -32
-1 0 -4 -24 -5 -53 -2 -29 -6 -59 -8 -66 -3 -8 -3 -17 0 -20 4 -3 7 -21 9 -38
4 -63 25 -132 57 -193 17 -33 35 -62 39 -63 5 -2 8 -8 8 -13 0 -16 99 -109
152 -142 59 -38 129 -67 158 -67 10 0 21 -3 23 -7 3 -5 -64 -7 -149 -7 l-153
1 5 -76 c4 -42 8 -79 10 -83 2 -3 6 -30 9 -60 3 -29 9 -87 15 -128 5 -41 11
-95 15 -120 3 -25 7 -54 9 -65 2 -11 7 -50 11 -88 5 -51 11 -70 26 -77 13 -8
19 -7 19 0 0 7 7 8 18 2 9 -4 35 -7 57 -5 22 2 46 3 53 3 10 0 73 0 115 0 6 0
72 -1 145 -3 74 -1 136 1 139 6 2 4 9 4 15 0 16 -9 139 -10 145 0 2 4 9 4 15
1 15 -9 82 -9 96 0 7 4 12 4 12 -1 0 -10 151 -10 168 1 7 4 12 4 12 -1 0 -4
29 -8 65 -8 36 0 65 4 65 8 0 5 5 5 12 1 17 -11 108 -11 108 0 0 5 5 5 13 -1
14 -10 218 -10 234 0 7 4 14 4 16 0 6 -9 129 -9 144 0 6 4 13 4 16 0 4 -3 33
-5 64 -4 32 0 66 1 76 1 9 0 37 0 62 0 25 0 52 0 60 0 8 0 35 0 60 0 25 0 52
0 60 0 8 0 35 0 60 0 25 0 51 0 58 0 6 0 72 -1 145 -3 74 -1 136 1 139 6 2 4
9 4 15 0 16 -9 139 -10 145 0 2 4 9 4 15 1 15 -9 82 -9 96 0 7 4 12 4 12 -1 0
-10 151 -10 168 1 7 4 12 4 12 -1 0 -4 29 -8 65 -8 36 0 65 4 65 8 0 5 5 5 12
1 17 -11 108 -11 108 0 0 5 5 5 13 -1 14 -10 218 -10 234 0 7 4 14 4 16 0 6
-9 129 -9 144 0 6 4 13 4 16 0 4 -3 37 -6 75 -6 75 -1 75 -1 55 -67 -6 -19
-21 -69 -33 -110 -54 -181 -208 -534 -313 -715 -77 -133 -171 -280 -184 -288
-7 -4 -13 -15 -13 -22 0 -8 -3 -15 -7 -15 -5 -1 -24 -23 -43 -51 -19 -28 -43
-60 -54 -72 -10 -12 -35 -42 -55 -67 -89 -110 -311 -321 -431 -409 -30 -22
-59 -44 -65 -48 -51 -41 -220 -140 -335 -195 -122 -58 -319 -128 -435 -154
-56 -13 -167 -34 -210 -40 -28 -3 -59 -8 -69 -10 -111 -21 -540 -20 -761 1
-27 2 -77 7 -110 10 -33 3 -71 8 -85 10 -14 3 -45 8 -70 11 -25 3 -54 7 -65 8
-24 4 -102 17 -130 22 -11 2 -33 7 -50 10 -16 3 -57 12 -90 20 -33 9 -67 17
-75 19 -49 10 -276 78 -315 95 -11 4 -56 23 -100 40 -97 39 -304 141 -344 169
-16 12 -34 21 -40 21 -6 0 -11 5 -11 10 0 6 -5 10 -10 10 -12 0 -73 41 -78 53
-2 4 -10 7 -18 7 -8 0 -14 5 -14 10 0 6 -7 10 -15 10 -8 0 -15 4 -15 8 0 4
-12 15 -27 25 -16 9 -42 29 -60 44 -17 15 -48 42 -70 59 -90 75 -244 238 -336
359 -4 6 -21 28 -37 49 -17 22 -40 55 -52 75 -12 20 -25 38 -29 41 -26 19
-209 367 -274 520 -15 36 -34 79 -41 97 -8 17 -14 33 -14 36 0 3 -5 18 -12 34
-6 15 -12 30 -13 33 -1 3 -4 12 -8 20 -10 25 -69 194 -71 205 -1 6 -14 51 -29
100 -56 182 -84 290 -92 345 -2 14 -8 48 -13 75 -5 28 -10 57 -10 65 0 8 -3
26 -6 39 -22 98 -23 574 -1 688 1 11 6 46 10 78 4 33 9 67 10 75 1 8 6 35 10
60 4 25 9 54 12 65 6 27 12 55 18 85 4 14 8 36 11 50 6 30 63 229 71 250 3 8
7 20 8 25 8 31 48 142 55 150 5 6 8 12 9 15 1 36 104 258 193 418 296 532 766
975 1285 1213 49 22 96 45 106 50 28 15 255 98 317 115 125 35 237 64 265 69
17 3 64 13 105 21 173 34 417 37 765 8 39 -3 81 -7 95 -10 14 -2 43 -7 65 -10
33 -4 104 -17 160 -30 6 -1 30 -5 55 -9 24 -4 48 -9 52 -12 5 -2 21 -7 36 -10
35 -7 39 -7 92 -22 100 -28 266 -84 275 -92 5 -5 14 -9 21 -9 7 0 34 -10 61
-22 26 -12 50 -22 53 -23 44 -15 224 -105 305 -152 102 -61 190 -116 200 -127
6 -6 34 -27 62 -46 29 -19 53 -38 53 -42 0 -5 5 -8 11 -8 13 0 104 -76 203
-170 68 -64 103 -101 179 -183 49 -54 178 -224 196 -259 l14 -28 514 0 514 0
-27 48 c-57 98 -147 237 -155 240 -5 2 -9 8 -9 13 0 9 -116 177 -157 229 -118
149 -148 186 -155 188 -4 2 -8 8 -8 12 0 5 -12 22 -27 38 -16 16 -56 61 -91
100 -100 113 -290 300 -378 372 -39 32 -149 121 -159 128 -40 30 -199 141
-227 157 -18 11 -55 33 -83 49 -52 31 -241 126 -249 126 -3 0 -31 12 -63 26
-106 48 -117 52 -253 102 -142 52 -224 80 -256 87 -10 2 -35 9 -54 15 -34 11
-163 45 -205 55 -20 5 -88 20 -135 30 -48 10 -196 34 -245 40 -27 3 -63 8 -80
10 -48 7 -155 15 -226 19 -37 2 -71 6 -77 10 -6 3 -13 2 -16 -2 -5 -8 -76 -6
-103 3 -6 2 -13 2 -15 -1z m-500 -3163 c12 -6 22 -9 22 -6 0 13 91 -58 114
-88 29 -39 66 -111 66 -129 0 -11 -60 -14 -312 -13 -354 0 -328 -7 -285 83 33
72 104 131 187 158 44 14 179 10 208 -5z m2217 -1 c17 -7 33 -13 37 -12 16 3
106 -90 128 -134 13 -27 22 -49 20 -49 -2 0 1 -9 7 -20 11 -20 9 -20 -303 -20
-202 0 -314 4 -315 10 -1 19 24 85 33 85 4 0 8 6 8 13 1 18 65 84 102 103 82
43 213 54 283 24z m-1456 -88 c13 -20 65 -102 115 -182 50 -80 94 -146 98
-148 5 -2 8 -8 8 -12 0 -5 45 -79 100 -165 55 -85 100 -159 100 -164 0 -5 4
-11 8 -13 12 -5 82 -121 77 -126 -4 -5 -497 -6 -550 -2 -16 1 -17 3 -5 8 14 6
16 59 15 425 0 229 2 417 5 417 3 -1 16 -18 29 -38z m1882 -454 c2 -83 26
-159 70 -224 42 -62 132 -124 180 -124 12 0 19 -3 16 -6 -5 -6 -599 -9 -677
-4 -24 2 -24 2 5 11 17 6 38 12 48 14 62 14 156 83 243 178 17 20 77 134 88
170 9 29 26 19 27 -15z m-1995 -360 c-10 -6 -22 -6 -26 -2 -5 5 3 10 18 11 22
1 24 0 8 -9z"/>
<path d="M6869 5203 c-1 -56 -1 -189 0 -218 1 -19 8 -20 101 -20 l100 0 1 58
c1 72 1 103 0 172 l-1 55 -100 0 -100 0 -1 -47z"/>
<path d="M6968 4932 l-98 -3 -1 -42 c0 -23 0 -262 -1 -532 l0 -490 101 -3 101
-3 1 48 c2 157 0 1025 -3 1026 -1 1 -47 1 -100 -1z"/>
</g>
</svg>
