<svg width="204" height="99" viewBox="0 0 204 99" fill="none" xmlns="http://www.w3.org/2000/svg">
<path fill-rule="evenodd" clip-rule="evenodd" d="M91.146 26.1269H79.4944C79.4944 26.1269 69.5427 8.70256 43.8125 10.1562C15.6552 14.2684 7.15973 42.0976 11.5283 58.0702C15.897 74.0409 24.1507 89.0438 52.308 89.0438C80.4671 89.0438 86.292 54.6829 84.8358 59.5219H37.744L36.7732 51.7776H96C95.7897 54.5066 95.0036 93.728 51.5808 97.9989C28.4781 98.1184 15.6376 88.7558 6.67434 73.7999C0.961536 63.8065 -6.82455 31.395 19.5365 11.126C42.0163 -4.7918 61.2889 1.68698 71.2445 6.28502C83.3835 12.0899 91.146 26.1269 91.146 26.1269Z" fill="#007D70" stroke="#5B5E5D" stroke-miterlimit="22.9256"/>
<path fill-rule="evenodd" clip-rule="evenodd" d="M49.0609 50.6914L49 35.8198H51.1833L59.3074 48.1524L59.3094 38.1178H58.3995L60.0954 25.9067L61.7344 38.1159L60.8245 38.1178L60.7656 50.9324H58.9458L51.1833 38.7212V50.6914H49.0609Z" fill="#007D70" stroke="#5B5E5D" stroke-miterlimit="22.9256"/>
<path fill-rule="evenodd" clip-rule="evenodd" d="M47.5522 44.7899H36.6104C36.704 46.1351 37.1818 47.2213 38.042 48.0524C38.9001 48.8816 39.9716 49.2961 41.2588 49.2961C42.1698 49.2961 42.9892 49.0536 43.7152 48.5748C44.4411 48.0918 45.0043 47.4244 45.4008 46.5642H47.1638C46.6087 47.9343 45.8217 48.981 44.8132 49.7127C43.8005 50.4444 42.6314 50.8134 41.3035 50.8134C39.5406 50.8134 38.046 50.1729 36.828 48.8919C35.608 47.611 35 46.0709 35 44.2759C35 42.3938 35.5978 40.8413 36.7894 39.6142C37.983 38.383 39.5101 37.7695 41.3686 37.7695C43.1926 37.7695 44.677 38.41 45.8258 39.6868C46.9767 40.9677 47.5522 42.6301 47.5522 44.678V44.7899ZM45.8319 43.4509C45.5391 42.0642 44.9982 41.0175 44.2113 40.3148C43.4244 39.6142 42.4016 39.2639 41.1388 39.2639C39.9656 39.2639 38.9672 39.6412 38.1518 40.3957C37.3364 41.1502 36.8382 42.1679 36.6552 43.4509H45.8319ZM75.1922 44.7899H64.2505C64.344 46.1351 64.8218 47.2213 65.682 48.0524C66.5401 48.8816 67.6137 49.2961 68.8988 49.2961C69.8098 49.2961 70.6292 49.0536 71.3552 48.5748C72.0811 48.0918 72.6443 47.4244 73.0409 46.5642H74.8038C74.2487 47.9343 73.4618 48.981 72.4532 49.7127C71.4426 50.4444 70.2714 50.8134 68.9436 50.8134C67.1806 50.8134 65.686 50.1729 64.468 48.8919C63.25 47.611 62.64 46.0709 62.64 44.2759C62.64 42.3938 63.2378 40.8413 64.4294 39.6142C65.623 38.383 67.1501 37.7695 69.0086 37.7695C70.8326 37.7695 72.319 38.41 73.4658 39.6868C74.6167 40.9677 75.1922 42.6301 75.1922 44.678V44.7899ZM73.474 43.4509C73.1791 42.0642 72.6383 41.0175 71.8513 40.3148C71.0664 39.6142 70.0416 39.2639 68.7789 39.2639C67.6056 39.2639 66.6092 39.6412 65.7918 40.3957C64.9764 41.1502 64.4802 42.1679 64.2952 43.4509H73.474ZM76.1011 46.5766H77.6994V46.6222C77.6994 47.3933 77.917 48.0297 78.3501 48.5354C78.7832 49.0412 79.32 49.2961 79.9605 49.2961C80.5705 49.2961 81.0728 49.0992 81.4795 48.7116C81.8821 48.3219 82.0854 47.8307 82.0854 47.2399C82.0854 46.6492 81.9268 46.1745 81.6076 45.8139C81.2883 45.4532 80.7088 45.1153 79.869 44.8024C78.527 44.3132 77.6465 43.8157 77.2378 43.31C76.8271 42.8001 76.6196 42.1181 76.6196 41.2621C76.6196 40.2962 76.9613 39.4754 77.6506 38.8038C78.3358 38.1301 79.1695 37.7923 80.1435 37.7923C81.1826 37.7923 82.002 38.0908 82.6121 38.6898C83.2221 39.2909 83.5474 40.1262 83.5942 41.1978H81.9309C81.8943 40.6112 81.7133 40.1573 81.3859 39.836C81.0586 39.5127 80.6112 39.3531 80.0459 39.3531C79.5396 39.3531 79.1187 39.5251 78.7791 39.8733C78.4395 40.2236 78.2708 40.6568 78.2708 41.173C78.2708 41.5419 78.3419 41.8487 78.4822 42.1016C78.6205 42.3503 78.8503 42.5783 79.1736 42.7814C79.4664 42.968 79.8955 43.1483 80.4607 43.3203C81.022 43.4945 81.3961 43.6209 81.5893 43.7017C82.3457 44.0313 82.9029 44.4686 83.2587 45.0159C83.6166 45.5631 83.7935 46.2574 83.7935 47.1052C83.7935 48.1685 83.4275 49.0495 82.7015 49.748C81.9756 50.4424 81.0504 50.7906 79.9382 50.7906C78.7974 50.7906 77.8844 50.4113 77.191 49.6526C76.4997 48.8878 76.1398 47.8638 76.1011 46.5766ZM86.8985 36.4263H85.345V33.8768H86.8985V36.4263ZM85.345 50.2351V37.8773H86.8985V50.2351H85.345ZM88.3076 46.5766H89.9079V46.6222C89.9079 47.3933 90.1255 48.0297 90.5586 48.5354C90.9897 49.0412 91.5285 49.2961 92.167 49.2961C92.777 49.2961 93.2813 49.0992 93.686 48.7116C94.0906 48.3219 94.294 47.8307 94.294 47.2399C94.294 46.6492 94.1354 46.1745 93.8161 45.8139C93.4949 45.4532 92.9153 45.1153 92.0776 44.8024C90.7335 44.3132 89.8551 43.8157 89.4443 43.31C89.0336 42.8001 88.8282 42.1181 88.8282 41.2621C88.8282 40.2962 89.1698 39.4754 89.8571 38.8038C90.5423 38.1301 91.3781 37.7923 92.3521 37.7923C93.3891 37.7923 94.2106 38.0908 94.8186 38.6898C95.4286 39.2909 95.756 40.1262 95.8007 41.1978H94.1374C94.1008 40.6112 93.9198 40.1573 93.5924 39.836C93.2671 39.5127 92.8177 39.3531 92.2545 39.3531C91.7461 39.3531 91.3252 39.5251 90.9856 39.8733C90.6481 40.2236 90.4793 40.6568 90.4793 41.173C90.4793 41.5419 90.5505 41.8487 90.6888 42.1016C90.8291 42.3503 91.0588 42.5783 91.3821 42.7814C91.6749 42.968 92.104 43.1483 92.6673 43.3203C93.2285 43.4945 93.6046 43.6209 93.7958 43.7017C94.5522 44.0313 95.1094 44.4686 95.4672 45.0159C95.8231 45.5631 96 46.2574 96 47.1052C96 48.1685 95.636 49.0495 94.9101 49.748C94.1842 50.4424 93.259 50.7906 92.1447 50.7906C91.0059 50.7906 90.0909 50.4113 89.3996 49.6526C88.7062 48.8878 88.3463 47.8638 88.3076 46.5766Z" fill="#007D70" stroke="#5B5E5D" stroke-miterlimit="22.9256"/>
<path d="M114.578 70.5781C115.719 70.5781 116.562 70.8646 117.109 71.4375C117.661 72.0052 117.938 72.8646 117.938 74.0156C117.938 74.599 117.867 75.1198 117.727 75.5781C117.586 76.0365 117.372 76.4271 117.086 76.75C116.805 77.0677 116.451 77.3099 116.023 77.4766C115.596 77.6432 115.091 77.7266 114.508 77.7266H113.82V82H112.102V70.5781H114.578ZM114.469 72.0547H113.82V76.2422H114.344C114.771 76.2422 115.122 76.1693 115.398 76.0234C115.674 75.8724 115.878 75.6354 116.008 75.3125C116.143 74.9844 116.211 74.5573 116.211 74.0312C116.211 73.3333 116.068 72.8307 115.781 72.5234C115.5 72.2109 115.062 72.0547 114.469 72.0547ZM124.344 82L123.617 78.7891H120.992L120.266 82H118.422L121.188 70.5781H123.359L126.172 82H124.344ZM123.328 77.2578L122.586 73.8125C122.544 73.5885 122.505 73.3724 122.469 73.1641C122.432 72.9505 122.398 72.7448 122.367 72.5469C122.336 72.349 122.307 72.1589 122.281 71.9766C122.266 72.1536 122.242 72.3411 122.211 72.5391C122.185 72.737 122.151 72.9401 122.109 73.1484C122.073 73.3568 122.031 73.5703 121.984 73.7891L121.258 77.2578H123.328ZM132.375 73.2109C132.375 73.9505 132.203 74.5625 131.859 75.0469C131.521 75.526 131.026 75.8438 130.375 76V76.0625C131.115 76.151 131.674 76.4349 132.055 76.9141C132.435 77.3932 132.625 78.0365 132.625 78.8438C132.625 79.5 132.5 80.0781 132.25 80.5781C132 81.0729 131.615 81.4609 131.094 81.7422C130.573 82.0182 129.911 82.1562 129.109 82.1562C128.635 82.1562 128.188 82.1146 127.766 82.0312C127.344 81.9479 126.956 81.8229 126.602 81.6562V79.9922C126.799 80.1224 127.029 80.237 127.289 80.3359C127.549 80.4349 127.818 80.5104 128.094 80.5625C128.375 80.6146 128.641 80.6406 128.891 80.6406C129.573 80.6406 130.07 80.4896 130.383 80.1875C130.701 79.8802 130.859 79.3958 130.859 78.7344C130.859 78.0781 130.677 77.5938 130.312 77.2812C129.948 76.9635 129.391 76.8047 128.641 76.8047H127.75V75.3047H128.602C129.07 75.3047 129.456 75.2422 129.758 75.1172C130.06 74.987 130.284 74.7865 130.43 74.5156C130.576 74.2448 130.648 73.8932 130.648 73.4609C130.648 72.9505 130.518 72.5677 130.258 72.3125C130.003 72.0573 129.635 71.9297 129.156 71.9297C128.807 71.9297 128.487 71.9974 128.195 72.1328C127.904 72.263 127.646 72.4453 127.422 72.6797L126.68 71.4297C126.956 71.1849 127.232 70.9896 127.508 70.8438C127.789 70.6927 128.091 70.5833 128.414 70.5156C128.737 70.4479 129.099 70.4141 129.5 70.4141C130.099 70.4141 130.612 70.5312 131.039 70.7656C131.466 70.9948 131.794 71.3203 132.023 71.7422C132.258 72.1589 132.375 72.6484 132.375 73.2109ZM134.555 70.5781H137.305C138.393 70.5781 139.211 70.8073 139.758 71.2656C140.305 71.7188 140.578 72.4141 140.578 73.3516C140.578 73.8203 140.516 74.2344 140.391 74.5938C140.271 74.9531 140.091 75.2474 139.852 75.4766C139.617 75.7057 139.331 75.862 138.992 75.9453V76.0156C139.409 76.1198 139.75 76.2891 140.016 76.5234C140.281 76.7578 140.477 77.0573 140.602 77.4219C140.732 77.7812 140.797 78.2109 140.797 78.7109C140.797 79.3776 140.674 79.9583 140.43 80.4531C140.185 80.9427 139.828 81.3229 139.359 81.5938C138.891 81.8646 138.326 82 137.664 82H134.555V70.5781ZM136.273 75.3516H137.297C137.828 75.3516 138.219 75.2005 138.469 74.8984C138.719 74.5964 138.844 74.1484 138.844 73.5547C138.844 73.0495 138.714 72.6641 138.453 72.3984C138.193 72.1328 137.799 72 137.273 72H136.273V75.3516ZM136.273 76.75V80.5312H137.508C138.013 80.5312 138.393 80.3724 138.648 80.0547C138.909 79.7318 139.039 79.2448 139.039 78.5938C139.039 78.1875 138.974 77.849 138.844 77.5781C138.714 77.3073 138.526 77.1016 138.281 76.9609C138.036 76.8203 137.74 76.75 137.391 76.75H136.273ZM142.555 70.5781H144.227V76.6719C144.227 76.8281 144.224 76.9922 144.219 77.1641C144.214 77.3359 144.208 77.5234 144.203 77.7266C144.198 77.9245 144.188 78.1406 144.172 78.375C144.161 78.6094 144.148 78.8646 144.133 79.1406H144.195L147.836 70.5781H149.938V82H148.266V75.7734C148.266 75.6068 148.268 75.4323 148.273 75.25C148.279 75.0625 148.284 74.8672 148.289 74.6641C148.299 74.4609 148.312 74.2474 148.328 74.0234C148.344 73.7943 148.362 73.5573 148.383 73.3125H148.32L144.641 82H142.555V70.5781ZM155.102 82H153.398V72.0859H151.219V70.5781H157.273V72.0859H155.102V82ZM158.586 70.5781H160.258V76.6719C160.258 76.8281 160.255 76.9922 160.25 77.1641C160.245 77.3359 160.24 77.5234 160.234 77.7266C160.229 77.9245 160.219 78.1406 160.203 78.375C160.193 78.6094 160.18 78.8646 160.164 79.1406H160.227L163.867 70.5781H165.969V82H164.297V75.7734C164.297 75.6068 164.299 75.4323 164.305 75.25C164.31 75.0625 164.315 74.8672 164.32 74.6641C164.331 74.4609 164.344 74.2474 164.359 74.0234C164.375 73.7943 164.393 73.5573 164.414 73.3125H164.352L160.672 82H158.586V70.5781ZM172.977 82H168.164V70.5781H172.977V72.0625H169.883V75.3047H172.781V76.7969H169.883V80.4766H172.977V82Z" fill="#007D70"/>
<path d="M112.102 43.5781H114.852C115.94 43.5781 116.758 43.8073 117.305 44.2656C117.852 44.7188 118.125 45.4141 118.125 46.3516C118.125 46.8203 118.062 47.2344 117.938 47.5938C117.818 47.9531 117.638 48.2474 117.398 48.4766C117.164 48.7057 116.878 48.862 116.539 48.9453V49.0156C116.956 49.1198 117.297 49.2891 117.562 49.5234C117.828 49.7578 118.023 50.0573 118.148 50.4219C118.279 50.7812 118.344 51.2109 118.344 51.7109C118.344 52.3776 118.221 52.9583 117.977 53.4531C117.732 53.9427 117.375 54.3229 116.906 54.5938C116.438 54.8646 115.872 55 115.211 55H112.102V43.5781ZM113.82 48.3516H114.844C115.375 48.3516 115.766 48.2005 116.016 47.8984C116.266 47.5964 116.391 47.1484 116.391 46.5547C116.391 46.0495 116.26 45.6641 116 45.3984C115.74 45.1328 115.346 45 114.82 45H113.82V48.3516ZM113.82 49.75V53.5312H115.055C115.56 53.5312 115.94 53.3724 116.195 53.0547C116.456 52.7318 116.586 52.2448 116.586 51.5938C116.586 51.1875 116.521 50.849 116.391 50.5781C116.26 50.3073 116.073 50.1016 115.828 49.9609C115.583 49.8203 115.286 49.75 114.938 49.75H113.82ZM127.367 49.2734C127.367 50.1328 127.292 50.9219 127.141 51.6406C126.995 52.3594 126.768 52.9818 126.461 53.5078C126.159 54.0339 125.766 54.4401 125.281 54.7266C124.802 55.013 124.232 55.1562 123.57 55.1562C122.898 55.1562 122.32 55.0104 121.836 54.7188C121.352 54.4271 120.956 54.0182 120.648 53.4922C120.341 52.9609 120.115 52.3359 119.969 51.6172C119.823 50.8984 119.75 50.112 119.75 49.2578C119.75 47.9661 119.893 46.888 120.18 46.0234C120.466 45.1536 120.893 44.5 121.461 44.0625C122.029 43.625 122.732 43.4062 123.57 43.4062C124.456 43.4062 125.177 43.6536 125.734 44.1484C126.297 44.6432 126.708 45.3333 126.969 46.2188C127.234 47.099 127.367 48.1172 127.367 49.2734ZM121.531 49.2734C121.531 50.2266 121.607 51.026 121.758 51.6719C121.914 52.3177 122.143 52.8047 122.445 53.1328C122.747 53.4609 123.12 53.625 123.562 53.625C124.01 53.625 124.383 53.4661 124.68 53.1484C124.977 52.8255 125.201 52.3438 125.352 51.7031C125.503 51.0573 125.578 50.2474 125.578 49.2734C125.578 47.8203 125.409 46.7318 125.07 46.0078C124.737 45.2839 124.237 44.9219 123.57 44.9219C123.117 44.9219 122.74 45.0859 122.438 45.4141C122.135 45.7422 121.909 46.2292 121.758 46.875C121.607 47.5156 121.531 48.3151 121.531 49.2734ZM132.914 44.9141C132.518 44.9141 132.177 45.0286 131.891 45.2578C131.604 45.4818 131.367 45.7969 131.18 46.2031C130.997 46.6042 130.862 47.0703 130.773 47.6016C130.685 48.1328 130.641 48.7005 130.641 49.3047C130.641 50.2161 130.734 50.9974 130.922 51.6484C131.109 52.2943 131.38 52.7891 131.734 53.1328C132.089 53.4714 132.513 53.6406 133.008 53.6406C133.346 53.6406 133.667 53.5911 133.969 53.4922C134.271 53.388 134.56 53.2656 134.836 53.125V54.6641C134.544 54.8255 134.227 54.9479 133.883 55.0312C133.544 55.1146 133.174 55.1562 132.773 55.1562C131.956 55.1562 131.255 54.9245 130.672 54.4609C130.089 53.9974 129.641 53.3281 129.328 52.4531C129.016 51.5781 128.859 50.5234 128.859 49.2891C128.859 48.4557 128.943 47.6849 129.109 46.9766C129.276 46.263 129.523 45.638 129.852 45.1016C130.185 44.5651 130.599 44.1484 131.094 43.8516C131.589 43.5547 132.161 43.4062 132.812 43.4062C133.229 43.4062 133.63 43.4583 134.016 43.5625C134.401 43.6667 134.773 43.8255 135.133 44.0391L134.594 45.4688C134.333 45.2969 134.065 45.1615 133.789 45.0625C133.513 44.9635 133.221 44.9141 132.914 44.9141ZM136.617 55V43.5781H143.172V55H141.461V45.0859H138.336V55H136.617ZM145.367 43.5781H147.039V49.6719C147.039 49.8281 147.036 49.9922 147.031 50.1641C147.026 50.3359 147.021 50.5234 147.016 50.7266C147.01 50.9245 147 51.1406 146.984 51.375C146.974 51.6094 146.961 51.8646 146.945 52.1406H147.008L150.648 43.5781H152.75V55H151.078V48.7734C151.078 48.6068 151.081 48.4323 151.086 48.25C151.091 48.0625 151.096 47.8672 151.102 47.6641C151.112 47.4609 151.125 47.2474 151.141 47.0234C151.156 46.7943 151.174 46.5573 151.195 46.3125H151.133L147.453 55H145.367V43.5781ZM157.914 55H156.211V45.0859H154.031V43.5781H160.086V45.0859H157.914V55ZM166.219 55L165.492 51.7891H162.867L162.141 55H160.297L163.062 43.5781H165.234L168.047 55H166.219ZM165.203 50.2578L164.461 46.8125C164.419 46.5885 164.38 46.3724 164.344 46.1641C164.307 45.9505 164.273 45.7448 164.242 45.5469C164.211 45.349 164.182 45.1589 164.156 44.9766C164.141 45.1536 164.117 45.3411 164.086 45.5391C164.06 45.737 164.026 45.9401 163.984 46.1484C163.948 46.3568 163.906 46.5703 163.859 46.7891L163.133 50.2578H165.203ZM175.812 55H174.094V49.7969H170.867V55H169.148V43.5781H170.867V48.2812H174.094V43.5781H175.812V55ZM178.008 43.5781H179.68V49.6719C179.68 49.8281 179.677 49.9922 179.672 50.1641C179.667 50.3359 179.661 50.5234 179.656 50.7266C179.651 50.9245 179.641 51.1406 179.625 51.375C179.615 51.6094 179.602 51.8646 179.586 52.1406H179.648L183.289 43.5781H185.391V55H183.719V48.7734C183.719 48.6068 183.721 48.4323 183.727 48.25C183.732 48.0625 183.737 47.8672 183.742 47.6641C183.753 47.4609 183.766 47.2474 183.781 47.0234C183.797 46.7943 183.815 46.5573 183.836 46.3125H183.773L180.094 55H178.008V43.5781ZM192.398 55H187.586V43.5781H192.398V45.0625H189.305V48.3047H192.203V49.7969H189.305V53.4766H192.398V55Z" fill="#007D70"/>
<path d="M119.367 22.2734C119.367 23.1328 119.292 23.9219 119.141 24.6406C118.995 25.3594 118.768 25.9818 118.461 26.5078C118.159 27.0339 117.766 27.4401 117.281 27.7266C116.802 28.013 116.232 28.1562 115.57 28.1562C114.898 28.1562 114.32 28.0104 113.836 27.7188C113.352 27.4271 112.956 27.0182 112.648 26.4922C112.341 25.9609 112.115 25.3359 111.969 24.6172C111.823 23.8984 111.75 23.112 111.75 22.2578C111.75 20.9661 111.893 19.888 112.18 19.0234C112.466 18.1536 112.893 17.5 113.461 17.0625C114.029 16.625 114.732 16.4062 115.57 16.4062C116.456 16.4062 117.177 16.6536 117.734 17.1484C118.297 17.6432 118.708 18.3333 118.969 19.2188C119.234 20.099 119.367 21.1172 119.367 22.2734ZM113.531 22.2734C113.531 23.2266 113.607 24.026 113.758 24.6719C113.914 25.3177 114.143 25.8047 114.445 26.1328C114.747 26.4609 115.12 26.625 115.562 26.625C116.01 26.625 116.383 26.4661 116.68 26.1484C116.977 25.8255 117.201 25.3438 117.352 24.7031C117.503 24.0573 117.578 23.2474 117.578 22.2734C117.578 20.8203 117.409 19.7318 117.07 19.0078C116.737 18.2839 116.237 17.9219 115.57 17.9219C115.117 17.9219 114.74 18.0859 114.438 18.4141C114.135 18.7422 113.909 19.2292 113.758 19.875C113.607 20.5156 113.531 21.3151 113.531 22.2734ZM121.211 28V16.5781H126.453V18.0859H122.93V21.1484H123.586C124.357 21.1484 125.003 21.2708 125.523 21.5156C126.049 21.7604 126.443 22.1328 126.703 22.6328C126.969 23.1276 127.102 23.75 127.102 24.5C127.102 25.6146 126.802 26.4766 126.203 27.0859C125.604 27.6953 124.763 28 123.68 28H121.211ZM122.93 26.5078H123.617C124.195 26.5078 124.635 26.3438 124.938 26.0156C125.24 25.6823 125.391 25.1901 125.391 24.5391C125.391 24.1068 125.326 23.75 125.195 23.4688C125.065 23.1875 124.867 22.9792 124.602 22.8438C124.341 22.7031 124.008 22.6328 123.602 22.6328H122.93V26.5078ZM134.531 16.5781L132.141 24.7109C131.901 25.5234 131.648 26.1849 131.383 26.6953C131.117 27.2005 130.802 27.5703 130.438 27.8047C130.073 28.0391 129.615 28.1562 129.062 28.1562C128.859 28.1562 128.667 28.138 128.484 28.1016C128.307 28.0703 128.135 28.0234 127.969 27.9609V26.4453C128.12 26.5182 128.268 26.5729 128.414 26.6094C128.56 26.6458 128.708 26.6641 128.859 26.6641C129.099 26.6641 129.297 26.6068 129.453 26.4922C129.615 26.3724 129.758 26.1693 129.883 25.8828C130.008 25.5964 130.138 25.2005 130.273 24.6953L127.625 16.5781H129.43L130.742 21.0312C130.794 21.1979 130.844 21.3698 130.891 21.5469C130.938 21.724 130.982 21.9115 131.023 22.1094C131.07 22.3073 131.115 22.5208 131.156 22.75H131.242C131.273 22.5365 131.305 22.3438 131.336 22.1719C131.372 21.9948 131.409 21.8229 131.445 21.6562C131.487 21.4844 131.534 21.3073 131.586 21.125L132.742 16.5781H134.531ZM141.891 28H140.172V23.4688C139.729 23.6927 139.302 23.862 138.891 23.9766C138.484 24.0859 138.096 24.1406 137.727 24.1406C136.982 24.1406 136.411 23.888 136.016 23.3828C135.625 22.8724 135.43 22.1406 135.43 21.1875V16.5781H137.148V20.7891C137.148 21.4245 137.242 21.8906 137.43 22.1875C137.622 22.4792 137.919 22.625 138.32 22.625C138.622 22.625 138.919 22.5807 139.211 22.4922C139.508 22.3984 139.828 22.2552 140.172 22.0625V16.5781H141.891V28ZM148.898 28H144.086V16.5781H148.898V18.0625H145.805V21.3047H148.703V22.7969H145.805V26.4766H148.898V28ZM157.359 28H155.641V22.7969H152.414V28H150.695V16.5781H152.414V21.2812H155.641V16.5781H157.359V28ZM159.555 16.5781H161.227V22.6719C161.227 22.8281 161.224 22.9922 161.219 23.1641C161.214 23.3359 161.208 23.5234 161.203 23.7266C161.198 23.9245 161.188 24.1406 161.172 24.375C161.161 24.6094 161.148 24.8646 161.133 25.1406H161.195L164.836 16.5781H166.938V28H165.266V21.7734C165.266 21.6068 165.268 21.4323 165.273 21.25C165.279 21.0625 165.284 20.8672 165.289 20.6641C165.299 20.4609 165.312 20.2474 165.328 20.0234C165.344 19.7943 165.362 19.5573 165.383 19.3125H165.32L161.641 28H159.555V16.5781ZM173.945 28H169.133V16.5781H173.945V18.0625H170.852V21.3047H173.75V22.7969H170.852V26.4766H173.945V28Z" fill="#007D70"/>
</svg>
