<svg width="67" height="72" viewBox="0 0 67 72" fill="none" xmlns="http://www.w3.org/2000/svg">
<path fill-rule="evenodd" clip-rule="evenodd" d="M61.8109 52.4198H5.1891C4.61705 52.4192 4.06841 52.1539 3.6636 51.6811C3.25927 51.2083 3.03158 50.568 3.03111 49.8993V47.9938H63.9683V49.8993C63.9674 50.5674 63.7402 51.2082 63.3354 51.6811C62.9311 52.1533 62.3824 52.4192 61.8104 52.4198H61.8109ZM40.4619 61.3515H26.5382C27.5305 59.3016 28.2581 57.0914 28.6971 54.7932H38.3025C38.7419 57.0914 39.4695 59.3017 40.4619 61.3515ZM44.8167 66.1762V68.6283H22.1831V66.1762C22.1836 65.5262 22.4052 64.9029 22.7987 64.4427C23.1922 63.983 23.7259 63.7242 24.2825 63.7236H42.717C43.2736 63.7242 43.8077 63.9825 44.2013 64.4427C44.5948 64.9023 44.8164 65.5262 44.8169 66.1762H44.8167ZM5.18898 3.37363H61.8108C62.3833 3.37418 62.932 3.63957 63.3368 4.11237C63.7416 4.58461 63.9693 5.22595 63.9697 5.89414V45.6243H3.03252V5.89414C3.03252 5.22599 3.26021 4.58519 3.66453 4.11293C4.06886 3.64013 4.61748 3.37419 5.18955 3.37364L5.18898 3.37363ZM61.8108 1.00083H5.18898C4.07861 1.00247 3.01365 1.51849 2.22841 2.4356C1.44318 3.35274 1.00144 4.59603 1 5.89352V49.8992C1.00187 51.1961 1.44368 52.4394 2.22889 53.3566C3.01411 54.2737 4.07858 54.7897 5.18898 54.7919H26.61C26.1115 57.122 25.2846 59.3393 24.1639 61.353C23.0896 61.3902 22.0701 61.915 21.3214 62.8153C20.5728 63.7154 20.153 64.9204 20.152 66.1757V69.8142V69.8136C20.1516 70.1283 20.2589 70.4303 20.4491 70.6525C20.6398 70.8752 20.8979 71 21.1673 71H45.8327C46.1021 71 46.3602 70.8752 46.5509 70.6525C46.7411 70.4303 46.8484 70.1283 46.848 69.8136V66.1763C46.847 64.9215 46.4272 63.716 45.6786 62.8158C44.9299 61.9157 43.9104 61.3914 42.8361 61.3536C41.7145 59.3404 40.8881 57.1231 40.39 54.793H61.811C62.9214 54.7908 63.9859 54.2748 64.7711 53.3577C65.5564 52.4406 65.9981 51.1973 66 49.9003V5.89325C65.9986 4.59635 65.5573 3.35249 64.7716 2.43478C63.9864 1.51764 62.9219 1.00168 61.811 1L61.8108 1.00083Z" fill="url(#paint0_linear_746_1692)" stroke="url(#paint1_linear_746_1692)"/>
<path d="M22.6746 12.4032C18.6383 12.4032 15.3545 15.691 15.3545 19.7315C15.3545 23.7724 18.6378 27.0605 22.6746 27.0605C26.711 27.0605 29.9954 23.7727 29.9954 19.7315C29.9954 15.6909 26.7105 12.4032 22.6746 12.4032Z" fill="url(#paint2_linear_746_1692)"/>
<path d="M30.9508 28.3099C31.933 27.7525 32.3584 26.5926 32.0286 25.5571C32.8436 25.1897 33.413 24.3706 33.413 23.4176C33.413 22.8883 33.2352 22.4008 32.9392 22.0085C33.7224 21.628 34.2641 20.8266 34.2641 19.8971C34.2641 19.0832 33.8505 18.3663 33.222 17.9455C33.578 17.5333 33.7958 16.998 33.7958 16.4099C33.7958 15.1794 32.8495 14.1716 31.6452 14.072C31.7537 13.8028 31.8144 13.5096 31.8144 13.2016C31.8144 11.9051 30.764 10.8544 29.4693 10.8544C29.1466 10.8544 28.8387 10.9196 28.5602 11.038C28.492 9.80233 27.4721 8.8209 26.2219 8.8209C25.7127 8.8209 25.243 8.98564 24.8581 9.26132C24.2782 8.24367 23.0176 7.79651 21.9124 8.2628C21.425 8.46892 21.0455 8.82141 20.7988 9.24682C20.1452 8.67217 19.1964 8.48393 18.3408 8.84493C17.5919 9.16121 17.0923 9.82199 16.9494 10.5655C16.4317 10.3961 15.8539 10.4038 15.3137 10.6322C14.1812 11.1104 13.6211 12.3747 13.9973 13.5233C13.7072 13.529 13.414 13.5864 13.1306 13.7061C11.9372 14.2104 11.3781 15.5865 11.8813 16.781C12.0061 17.0785 12.1857 17.3366 12.4029 17.5486C11.2931 18.0915 10.7853 19.4133 11.2715 20.5672C11.3986 20.869 11.5817 21.1305 11.8041 21.3446C11.2175 22.1861 11.233 23.346 11.916 24.1764C12.2526 24.5853 12.6985 24.8491 13.1759 24.9639C12.8127 25.7558 12.9033 26.7195 13.4934 27.4373C13.8253 27.8418 14.2632 28.1025 14.7333 28.2196L11.2322 37.7552L16.4133 36.2421L19.5677 40.8227L22.6534 32.4179L25.7399 40.8227L28.8938 36.2421L34.0749 37.7552L30.6585 28.4487C30.7569 28.4083 30.8553 28.3641 30.9509 28.3095L30.9508 28.3099ZM22.675 28.3114C17.9492 28.3114 14.1044 24.4627 14.1044 19.7318C14.1044 15.0007 17.9493 11.1522 22.675 11.1522C27.402 11.1522 31.2457 15.0009 31.2457 19.7318C31.2457 24.4629 27.4018 28.3114 22.675 28.3114Z" fill="url(#paint3_linear_746_1692)"/>
<defs>
<linearGradient id="paint0_linear_746_1692" x1="51.2667" y1="1" x2="12.7" y2="1" gradientUnits="userSpaceOnUse">
<stop stop-color="#DF78D9" stop-opacity="0.83"/>
<stop offset="1" stop-color="#978FE8"/>
</linearGradient>
<linearGradient id="paint1_linear_746_1692" x1="51.2667" y1="1" x2="12.7" y2="1" gradientUnits="userSpaceOnUse">
<stop stop-color="#DF78D9" stop-opacity="0.83"/>
<stop offset="1" stop-color="#978FE8"/>
</linearGradient>
<linearGradient id="paint2_linear_746_1692" x1="26.6768" y1="12.4032" x2="17.9899" y2="12.4032" gradientUnits="userSpaceOnUse">
<stop stop-color="#DF78D9" stop-opacity="0.83"/>
<stop offset="1" stop-color="#978FE8"/>
</linearGradient>
<linearGradient id="paint3_linear_746_1692" x1="29.0106" y1="8.07812" x2="15.2588" y2="8.07812" gradientUnits="userSpaceOnUse">
<stop stop-color="#DF78D9" stop-opacity="0.83"/>
<stop offset="1" stop-color="#978FE8"/>
</linearGradient>
</defs>
</svg>
