<svg width="114" height="114" viewBox="0 0 114 114" fill="none" xmlns="http://www.w3.org/2000/svg">
<circle opacity="0.5" cx="57.0003" cy="57" r="40" transform="rotate(-38.2221 57.0003 57)" fill="url(#paint0_linear_94_1436)"/>
<path d="M73.9985 69.2387V33.0295C73.9985 30.2567 71.7482 28 68.9812 28H10.0173C7.2512 28 5 30.2558 5 33.0295V70.1197C5 70.1403 5.00154 70.1609 5.00154 70.1809V76.9086C5.00051 76.9349 5 76.9611 5 76.9884V77.3577C5 77.384 5.00154 77.4102 5.00154 77.4375V77.5316H5.00462C5.09545 79.898 7.03682 81.7885 9.42045 81.7885H31.805C31.765 82.7834 31.2123 87.2964 24.4872 88.1437H24.7032C23.6415 88.1437 22.7798 89.0064 22.7798 90.0719C22.7798 91.1362 23.6404 92 24.7032 92H54.1885C55.2503 92 56.1109 91.1373 56.1109 90.0719C56.1109 89.0075 55.2503 88.1437 54.1885 88.1437H54.5108C47.7857 87.2965 47.2325 82.7829 47.1929 81.7885H69.5775C71.9602 81.7885 73.9015 79.898 73.9933 77.5316H74V69.2375L73.9985 69.2387ZM39.5 79.287C38.1448 79.287 37.046 78.1856 37.046 76.827C37.046 75.4684 38.1447 74.367 39.5 74.367C40.8554 74.367 41.9541 75.4684 41.9541 76.827C41.9541 78.1861 40.8554 79.287 39.5 79.287ZM69.8602 70.1194C69.8602 70.6056 69.4656 71.0012 68.9807 71.0012H10.018C9.53305 71.0012 9.13842 70.6061 9.13842 70.1194V33.0292C9.13842 32.5431 9.53305 32.1475 10.018 32.1475H68.982C69.4669 32.1475 69.8616 32.5426 69.8616 33.0292L69.8602 70.1194Z" fill="url(#paint1_linear_94_1436)"/>
<path d="M22.4216 37.2585C18.4429 37.2585 15.2061 40.4957 15.2061 44.4741C15.2061 48.4528 18.4425 51.6903 22.4216 51.6903C26.4003 51.6903 29.6378 48.4531 29.6378 44.4741C29.6378 40.4957 26.3999 37.2585 22.4216 37.2585Z" fill="url(#paint2_linear_94_1436)"/>
<path d="M30.5801 52.9205C31.5483 52.3717 31.9676 51.2296 31.6425 50.2101C32.4458 49.8483 33.0071 49.0418 33.0071 48.1035C33.0071 47.5823 32.8319 47.1023 32.5401 46.716C33.3122 46.3414 33.8461 45.5523 33.8461 44.6371C33.8461 43.8358 33.4384 43.1299 32.8189 42.7156C33.1698 42.3097 33.3844 41.7827 33.3844 41.2036C33.3844 39.992 32.4517 38.9997 31.2646 38.9017C31.3715 38.6366 31.4313 38.3479 31.4313 38.0446C31.4313 36.7681 30.396 35.7335 29.1197 35.7335C28.8017 35.7335 28.4982 35.7977 28.2237 35.9143C28.1565 34.6977 27.1512 33.7313 25.9187 33.7313C25.4168 33.7313 24.9539 33.8935 24.5745 34.165C24.0028 33.163 22.7602 32.7227 21.6709 33.1818C21.1904 33.3848 20.8163 33.7319 20.5731 34.1507C19.9289 33.5849 18.9936 33.3996 18.1502 33.755C17.4121 34.0664 16.9196 34.717 16.7788 35.4491C16.2685 35.2823 15.6989 35.2899 15.1664 35.5148C14.0501 35.9856 13.498 37.2305 13.8688 38.3614C13.5829 38.367 13.2938 38.4235 13.0145 38.5414C11.8381 39.038 11.2871 40.3929 11.7831 41.569C11.9061 41.8619 12.083 42.116 12.2972 42.3248C11.2033 42.8593 10.7027 44.1607 11.1819 45.297C11.3072 45.5941 11.4877 45.8516 11.707 46.0624C11.1287 46.891 11.144 48.033 11.8172 48.8506C12.149 49.2532 12.5885 49.5129 13.0591 49.626C12.7011 50.4057 12.7905 51.3545 13.3721 52.0614C13.6993 52.4596 14.1309 52.7163 14.5943 52.8316L11.1432 62.2205L16.2503 60.7307L19.3596 65.2408L22.4013 56.9653L25.4437 65.2408L28.5525 60.7307L33.6595 62.2205L30.292 53.0572C30.389 53.0174 30.486 52.9739 30.5802 52.9202L30.5801 52.9205ZM22.4226 52.922C17.7642 52.922 13.9743 49.1325 13.9743 44.4744C13.9743 39.8161 17.7644 36.0268 22.4226 36.0268C27.082 36.0268 30.8708 39.8163 30.8708 44.4744C30.8708 49.1327 27.0818 52.922 22.4226 52.922Z" fill="url(#paint3_linear_94_1436)"/>
<defs>
<linearGradient id="paint0_linear_94_1436" x1="57.2881" y1="-5.98851" x2="56.5536" y2="96.9968" gradientUnits="userSpaceOnUse">
<stop offset="0.275862" stop-color="#08C2AF" stop-opacity="0.88"/>
<stop offset="1" stop-color="#F368FF" stop-opacity="0.83"/>
</linearGradient>
<linearGradient id="paint1_linear_94_1436" x1="58.36" y1="28" x2="17.42" y2="28" gradientUnits="userSpaceOnUse">
<stop stop-color="#DF78D9" stop-opacity="0.83"/>
<stop offset="1" stop-color="#978FE8"/>
</linearGradient>
<linearGradient id="paint2_linear_94_1436" x1="26.3666" y1="37.2585" x2="17.8038" y2="37.2585" gradientUnits="userSpaceOnUse">
<stop stop-color="#DF78D9" stop-opacity="0.83"/>
<stop offset="1" stop-color="#978FE8"/>
</linearGradient>
<linearGradient id="paint3_linear_94_1436" x1="28.6677" y1="33" x2="15.1123" y2="33" gradientUnits="userSpaceOnUse">
<stop stop-color="#DF78D9" stop-opacity="0.83"/>
<stop offset="1" stop-color="#978FE8"/>
</linearGradient>
</defs>
</svg>
