<svg width="107" height="107" viewBox="0 0 107 107" fill="none" xmlns="http://www.w3.org/2000/svg">
<circle opacity="0.5" cx="53.4562" cy="53.4562" r="40" transform="rotate(25.9056 53.4562 53.4562)" fill="url(#paint0_linear_93_1184)"/>
<path d="M8.2742 31.6698H19.4846V25.6968H8.18554C6.22814 25.6968 4.62695 27.4164 4.62695 29.4977V66.5111H8.36381V31.6696L8.2742 31.6698Z" fill="url(#paint1_linear_93_1184)"/>
<path d="M71.8014 66.6018H75.5382V29.5884C75.5382 27.5071 73.937 25.7875 71.9796 25.7875L60.8574 25.7869V31.7598H71.8009L71.8014 66.6018Z" fill="url(#paint2_linear_93_1184)"/>
<path d="M79.2745 70.7645H48.49C48.2231 70.7645 48.045 71.036 48.045 71.3074V72.575C48.045 72.8464 47.8668 73.1179 47.6 73.1179H32.6529C32.386 73.1179 32.1191 72.8464 32.1191 72.575V71.3081C32.1191 71.0366 31.941 70.7652 31.6741 70.7652L0.800612 70.7645C0.355621 70.7645 0 71.1269 0 71.5795V72.3938C0 76.0134 2.9361 79 6.49485 79H73.4913C77.1393 79 79.9862 76.0136 79.9862 72.3938V71.5795C80.0755 71.1269 79.7199 70.7645 79.2749 70.7645L79.2745 70.7645Z" fill="url(#paint3_linear_93_1184)"/>
<path d="M26.247 62.1674H55.6969C55.9638 62.1674 56.2307 61.8959 56.2307 61.6245V27.2355C56.2307 26.9641 55.9638 26.6926 55.6969 26.6926H28.7382C28.0263 26.6926 27.4039 26.4212 26.9589 25.9686C26.5139 25.5159 26.247 24.8828 26.247 24.1588C26.247 23.525 26.5139 22.8918 26.8701 22.4392C27.3151 21.8963 28.027 21.5339 28.7389 21.5339H56.2315V19H28.383C27.3155 19 26.4256 19.3617 25.625 19.9052C24.5575 20.7196 23.8457 22.0773 23.8457 23.5248V59.5427C23.8457 60.2668 24.1126 60.8999 24.5576 61.2623C25.0019 61.8961 25.625 62.1676 26.2476 62.1676L26.247 62.1674ZM40.0379 33.6607C45.0202 33.6607 49.024 37.7329 49.024 42.8008C49.024 47.8686 45.0204 51.9408 40.0379 51.9408C35.0554 51.9408 31.0518 47.8686 31.0518 42.8008C31.0518 37.7329 35.0554 33.6607 40.0379 33.6607Z" fill="url(#paint4_linear_93_1184)"/>
<path d="M37.2804 47.5973L44.3089 43.4341C44.7539 43.1626 44.7539 42.4386 44.3089 42.1672L37.2804 38.004C36.8354 37.7325 36.2129 38.0942 36.2129 38.6377V46.8732C36.2129 47.5069 36.8354 47.8687 37.2804 47.5972V47.5973Z" fill="url(#paint5_linear_93_1184)"/>
<defs>
<linearGradient id="paint0_linear_93_1184" x1="53.744" y1="-9.53232" x2="53.0094" y2="93.453" gradientUnits="userSpaceOnUse">
<stop offset="0.275862" stop-color="#08C2AF" stop-opacity="0.88"/>
<stop offset="1" stop-color="#F368FF" stop-opacity="0.83"/>
</linearGradient>
<linearGradient id="paint1_linear_93_1184" x1="16.1169" y1="25.6968" x2="7.30133" y2="25.6968" gradientUnits="userSpaceOnUse">
<stop stop-color="#DF78D9" stop-opacity="0.83"/>
<stop offset="1" stop-color="#978FE8"/>
</linearGradient>
<linearGradient id="paint2_linear_93_1184" x1="72.2106" y1="25.7869" x2="63.5" y2="25.7869" gradientUnits="userSpaceOnUse">
<stop stop-color="#DF78D9" stop-opacity="0.83"/>
<stop offset="1" stop-color="#978FE8"/>
</linearGradient>
<linearGradient id="paint3_linear_93_1184" x1="61.8667" y1="70.7645" x2="14.4" y2="70.7645" gradientUnits="userSpaceOnUse">
<stop stop-color="#DF78D9" stop-opacity="0.83"/>
<stop offset="1" stop-color="#978FE8"/>
</linearGradient>
<linearGradient id="paint4_linear_93_1184" x1="48.8907" y1="19" x2="29.6751" y2="19" gradientUnits="userSpaceOnUse">
<stop stop-color="#DF78D9" stop-opacity="0.83"/>
<stop offset="1" stop-color="#978FE8"/>
</linearGradient>
<linearGradient id="paint5_linear_93_1184" x1="42.7319" y1="37.9116" x2="37.7302" y2="37.9116" gradientUnits="userSpaceOnUse">
<stop stop-color="#DF78D9" stop-opacity="0.83"/>
<stop offset="1" stop-color="#978FE8"/>
</linearGradient>
</defs>
</svg>
