<svg width="65" height="88" viewBox="0 0 65 88" fill="none" xmlns="http://www.w3.org/2000/svg">
<path d="M58.0548 88H6.94949C3.11677 88 0 84.5987 0 80.416V7.58397C0.000562444 3.40133 3.11677 0 6.94949 0H46.6935C47.3241 0 47.9265 0.274385 48.3725 0.755632L64.3056 18.1276C64.7516 18.6144 64.998 19.2718 64.998 19.9599V80.4155C64.9985 84.5933 61.8818 87.9995 58.0541 87.9995L58.0548 88ZM6.94949 5.17688C5.73509 5.17688 4.74406 6.25416 4.74406 7.58366V80.4157C4.74406 81.741 5.73515 82.8225 6.94949 82.8225H58.0504C59.2457 82.8225 60.2559 81.72 60.2559 80.4157L60.2553 21.0318L45.7118 5.17625L6.94949 5.17688Z" fill="url(#paint0_linear_87_284)"/>
<path d="M62.6266 22.5505H46.708C45.3985 22.5505 44.3365 21.3909 44.3365 19.9625L44.3359 2.58891C44.3359 1.54355 44.9147 0.595719 45.8018 0.196736C46.6838 -0.201649 47.7086 0.0156619 48.3869 0.755328L64.3056 18.1289C64.9839 18.8692 65.1876 19.9821 64.8175 20.9501C64.4479 21.9181 63.5896 22.5504 62.626 22.5504L62.6266 22.5505ZM49.0798 17.3734H56.9017L49.0798 8.83749V17.3734Z" fill="url(#paint1_linear_87_284)"/>
<path d="M49.6641 71.222H15.3414C14.032 71.222 12.97 70.0624 12.97 68.634C12.97 67.205 14.0325 66.046 15.3414 66.046H49.6641C50.9735 66.046 52.0355 67.2056 52.0355 68.634C52.0355 70.063 50.9736 71.222 49.6641 71.222Z" fill="url(#paint2_linear_87_284)"/>
<path d="M49.6641 55.6932H15.3414C14.032 55.6932 12.97 54.5337 12.97 53.1053C12.97 51.6762 14.0325 50.5173 15.3414 50.5173H49.6641C50.9735 50.5173 52.0355 51.6768 52.0355 53.1053C52.0355 54.5343 50.9736 55.6932 49.6641 55.6932Z" fill="url(#paint3_linear_87_284)"/>
<path d="M49.6641 40.1645H15.3414C14.032 40.1645 12.97 39.005 12.97 37.5765C12.97 36.1475 14.0325 34.9886 15.3414 34.9886H49.6641C50.9735 34.9886 52.0355 36.1481 52.0355 37.5765C52.0355 39.0055 50.9736 40.1645 49.6641 40.1645Z" fill="url(#paint4_linear_87_284)"/>
<defs>
<linearGradient id="paint0_linear_87_284" x1="50.2651" y1="0" x2="11.6996" y2="0" gradientUnits="userSpaceOnUse">
<stop stop-color="#DF78D9" stop-opacity="0.83"/>
<stop offset="1" stop-color="#978FE8"/>
</linearGradient>
<linearGradient id="paint1_linear_87_284" x1="60.3161" y1="0.00012207" x2="48.0555" y2="0.00012207" gradientUnits="userSpaceOnUse">
<stop stop-color="#DF78D9" stop-opacity="0.83"/>
<stop offset="1" stop-color="#978FE8"/>
</linearGradient>
<linearGradient id="paint2_linear_87_284" x1="43.1807" y1="66.046" x2="20.0018" y2="66.046" gradientUnits="userSpaceOnUse">
<stop stop-color="#DF78D9" stop-opacity="0.83"/>
<stop offset="1" stop-color="#978FE8"/>
</linearGradient>
<linearGradient id="paint3_linear_87_284" x1="43.1807" y1="50.5173" x2="20.0018" y2="50.5173" gradientUnits="userSpaceOnUse">
<stop stop-color="#DF78D9" stop-opacity="0.83"/>
<stop offset="1" stop-color="#978FE8"/>
</linearGradient>
<linearGradient id="paint4_linear_87_284" x1="43.1807" y1="34.9886" x2="20.0018" y2="34.9886" gradientUnits="userSpaceOnUse">
<stop stop-color="#DF78D9" stop-opacity="0.83"/>
<stop offset="1" stop-color="#978FE8"/>
</linearGradient>
</defs>
</svg>
