<svg width="63" height="78" viewBox="0 0 63 78" fill="none" xmlns="http://www.w3.org/2000/svg">
<path d="M44 42.2551L41.8016 40.1117L33.5572 48.1946V26H30.4428V48.1946L22.1984 40.1117L20 42.2551L32.0002 54L44 42.2551Z" fill="url(#paint0_linear_96_1211)"/>
<path d="M44.9779 51V59.0667H19.0224V51H16V62H48V51H44.9779Z" fill="url(#paint1_linear_96_1211)"/>
<path d="M61.1763 19.7873L43.0225 1.80631C41.862 0.656869 40.2869 0 38.7118 0H6.13433C4.47659 0 2.9842 0.656913 1.82368 1.80631C0.663185 2.95575 0 4.43337 0 6.07591V71.9241C0 75.2905 2.73551 78 6.13433 78H56.8657C60.2645 78 63 75.2905 63 71.9241V24.0569C63 22.4973 62.3368 20.9373 61.1763 19.7879V19.7873ZM57.6948 21.2649H44.2654C42.7736 21.2649 41.5299 20.0335 41.5299 18.5554L41.5305 5.33653L57.6948 21.2649ZM56.8656 74.4689H6.13424C4.72511 74.4689 3.56466 73.3195 3.56466 71.9238V6.07562C3.56466 5.41871 3.8133 4.76181 4.31058 4.26931C4.80786 3.77677 5.47107 3.5305 6.13426 3.5305H37.9657V18.5557C37.9657 22.0041 40.7839 24.7955 44.2655 24.7955H59.4352V71.9238C59.4352 73.3189 58.2747 74.4689 56.8656 74.4689L56.8656 74.4689Z" fill="url(#paint2_linear_96_1211)"/>
<defs>
<linearGradient id="paint0_linear_96_1211" x1="38.56" y1="26" x2="24.32" y2="26" gradientUnits="userSpaceOnUse">
<stop stop-color="#DF78D9" stop-opacity="0.83"/>
<stop offset="1" stop-color="#978FE8"/>
</linearGradient>
<linearGradient id="paint1_linear_96_1211" x1="40.7467" y1="51" x2="21.76" y2="51" gradientUnits="userSpaceOnUse">
<stop stop-color="#DF78D9" stop-opacity="0.83"/>
<stop offset="1" stop-color="#978FE8"/>
</linearGradient>
<linearGradient id="paint2_linear_96_1211" x1="48.72" y1="0" x2="11.34" y2="0" gradientUnits="userSpaceOnUse">
<stop stop-color="#DF78D9" stop-opacity="0.83"/>
<stop offset="1" stop-color="#978FE8"/>
</linearGradient>
</defs>
</svg>
