<svg width="70" height="80" viewBox="0 0 70 80" fill="none" xmlns="http://www.w3.org/2000/svg">
<path d="M62.7587 30.0005C62.0923 30.0005 61.5519 29.4407 61.5519 28.7505V27.5005C61.5524 25.3905 60.8045 23.3544 59.4506 21.7778L44.9527 4.88224C43.6504 3.36768 41.7862 2.50112 39.8283 2.49998H13.2765C11.9964 2.49998 10.7684 3.02676 9.86274 3.96425C8.95757 4.9023 8.44895 6.17409 8.44895 7.49993V28.7497C8.44895 29.44 7.90854 29.9997 7.24205 29.9997C6.57557 29.9997 6.03516 29.44 6.03516 28.7497V7.49993C6.03731 5.51167 6.80078 3.60483 8.15805 2.19869C9.51582 0.793022 11.3568 0.00228569 13.2765 0H39.8283C42.4758 0.000558024 44.9975 1.17353 46.7571 3.22269L61.255 20.1154C63.0023 22.1494 63.9673 24.7772 63.9656 27.4993V28.7493C63.9656 29.0808 63.8385 29.3989 63.6122 29.6332C63.3859 29.8676 63.0788 29.9993 62.7587 29.9993V30.0005Z" fill="url(#paint0_linear_78_260)"/>
<path d="M56.7238 80H13.2756C11.3558 79.9978 9.51473 79.207 8.15708 77.8013C6.79986 76.3951 6.03639 74.4883 6.03418 72.5001V63.7501C6.03418 63.0599 6.57459 62.5002 7.24108 62.5002C7.90756 62.5002 8.44797 63.0599 8.44797 63.7501V72.5001C8.44797 73.8259 8.95659 75.0978 9.86177 76.0357C10.7675 76.9732 11.9954 77.5 13.2756 77.5H56.7238C58.004 77.5 59.232 76.9732 60.1376 76.0357C61.0428 75.0977 61.5514 73.8259 61.5514 72.5001V63.7501C61.5514 63.0599 62.0918 62.5002 62.7583 62.5002C63.4248 62.5002 63.9652 63.0599 63.9652 63.7501V72.5001C63.9631 74.4883 63.1996 76.3952 61.8423 77.8013C60.4845 79.207 58.6436 79.9977 56.7238 80Z" fill="url(#paint1_linear_78_260)"/>
<path d="M55.5172 25.0005H43.4482C42.168 25.0005 40.9401 24.4737 40.0344 23.5362C39.1292 22.5982 38.6206 21.3264 38.6206 20.0006V7.50066C38.6206 6.81038 39.161 6.25067 39.8275 6.25067C40.494 6.25067 41.0344 6.81038 41.0344 7.50066V20.0006C41.0344 20.6635 41.2887 21.2997 41.7413 21.7684C42.1939 22.2371 42.8081 22.5005 43.4482 22.5005H55.5172C56.1836 22.5005 56.7241 23.0602 56.7241 23.7505C56.7241 24.4408 56.1836 25.0005 55.5172 25.0005Z" fill="url(#paint2_linear_78_260)"/>
<path d="M68.7931 60.0002H1.2069C0.540414 60.0002 0 59.4405 0 58.7502V33.7504C0 33.0601 0.540414 32.5004 1.2069 32.5004H68.7931C69.1131 32.5004 69.4203 32.6321 69.6466 32.8665C69.8728 33.1009 70 33.4189 70 33.7504V58.7502C70 59.0817 69.8728 59.3998 69.6466 59.6341C69.4203 59.8685 69.1131 60.0002 68.7931 60.0002ZM2.41379 57.5002H67.5862V35.0004H2.41379V57.5002Z" fill="url(#paint3_linear_78_260)"/>
<path d="M10.8828 39.8303H13.8906C15.0677 39.8303 15.9479 40.0621 16.5312 40.5256C17.1198 40.984 17.4141 41.6897 17.4141 42.6428C17.4141 43.0907 17.3516 43.4918 17.2266 43.8459C17.1068 44.1949 16.9323 44.484 16.7031 44.7131C16.474 44.9423 16.1979 45.1012 15.875 45.1897V45.2678C16.2812 45.3772 16.612 45.5491 16.8672 45.7834C17.1276 46.0178 17.3177 46.3147 17.4375 46.6741C17.5573 47.0334 17.6172 47.4553 17.6172 47.9397C17.6172 48.6168 17.4818 49.2027 17.2109 49.6975C16.9453 50.1923 16.5599 50.5751 16.0547 50.8459C15.5495 51.1168 14.9453 51.2522 14.2422 51.2522H10.8828V39.8303ZM13.0781 44.4553H13.8906C14.3333 44.4553 14.6615 44.3277 14.875 44.0725C15.0938 43.8173 15.2031 43.4423 15.2031 42.9475C15.2031 42.5152 15.0911 42.1871 14.8672 41.9631C14.6432 41.734 14.3073 41.6194 13.8594 41.6194H13.0781V44.4553ZM13.0781 46.1975V49.4084H14.0703C14.5078 49.4084 14.8359 49.273 15.0547 49.0022C15.2734 48.7314 15.3828 48.3199 15.3828 47.7678C15.3828 47.4293 15.3281 47.1454 15.2188 46.9163C15.1094 46.6819 14.9505 46.5048 14.7422 46.385C14.5391 46.26 14.2865 46.1975 13.9844 46.1975H13.0781ZM24.375 51.2522L23.7812 48.5022H21.2422L20.6484 51.2522H18.2969L21.0625 39.8303H23.8984L26.7109 51.2522H24.375ZM23.4453 46.5959L22.8281 43.5725C22.7865 43.3225 22.7448 43.0777 22.7031 42.8381C22.6667 42.5986 22.6302 42.3694 22.5938 42.1506C22.5625 41.9267 22.5339 41.7183 22.5078 41.5256C22.4922 41.7079 22.4688 41.9084 22.4375 42.1272C22.4062 42.3459 22.3698 42.5751 22.3281 42.8147C22.2865 43.0543 22.2396 43.2965 22.1875 43.5413L21.5781 46.5959H23.4453ZM29.3594 45.2991L26.6094 39.8303H28.9453L31.5312 45.2991V39.8303H33.6484V45.2991L36.2578 39.8303H38.5781L35.8047 45.2991L38.5781 51.2522H36.2031L33.6484 45.3928V51.2522H31.5312V45.3928L28.9609 51.2522H26.5938L29.3594 45.2991ZM46.7266 51.2522H44.5312V46.26H41.7031V51.2522H39.5078V39.8303H41.7031V44.3538H44.5312V39.8303H46.7266V51.2522ZM56.5469 45.5256C56.5469 46.4319 56.4635 47.2496 56.2969 47.9788C56.1302 48.7027 55.8802 49.3199 55.5469 49.8303C55.2135 50.3407 54.7917 50.7314 54.2812 51.0022C53.776 51.273 53.1823 51.4084 52.5 51.4084C51.8125 51.4084 51.2135 51.273 50.7031 51.0022C50.1927 50.7262 49.7708 50.3303 49.4375 49.8147C49.1042 49.2991 48.8542 48.6793 48.6875 47.9553C48.5208 47.2314 48.4375 46.4163 48.4375 45.51C48.4375 44.2288 48.5911 43.1532 48.8984 42.2834C49.2057 41.4137 49.6615 40.7574 50.2656 40.3147C50.8698 39.872 51.6146 39.6506 52.5 39.6506C53.4219 39.6506 54.1797 39.8876 54.7734 40.3616C55.3724 40.8355 55.8177 41.5126 56.1094 42.3928C56.401 43.2678 56.5469 44.3121 56.5469 45.5256ZM50.7109 45.5256C50.7109 46.4006 50.7786 47.1324 50.9141 47.7209C51.0495 48.3043 51.25 48.7444 51.5156 49.0413C51.7812 49.3329 52.1094 49.4788 52.5 49.4788C52.8958 49.4788 53.224 49.3355 53.4844 49.0491C53.75 48.7626 53.9479 48.3277 54.0781 47.7444C54.2135 47.1611 54.2812 46.4215 54.2812 45.5256C54.2812 44.1871 54.1328 43.1923 53.8359 42.5413C53.5391 41.885 53.0938 41.5569 52.5 41.5569C52.1094 41.5569 51.7812 41.7053 51.5156 42.0022C51.25 42.2991 51.0495 42.7418 50.9141 43.3303C50.7786 43.9189 50.7109 44.6506 50.7109 45.5256ZM60.1641 47.5413H58.4219L58.0625 39.8303H60.5L60.1641 47.5413ZM58.0469 50.1194C58.0469 49.6923 58.151 49.3668 58.3594 49.1428C58.5729 48.9189 58.8854 48.8069 59.2969 48.8069C59.6823 48.8069 59.9818 48.9189 60.1953 49.1428C60.4089 49.3616 60.5156 49.6871 60.5156 50.1194C60.5156 50.5413 60.4036 50.8668 60.1797 51.0959C59.9609 51.3199 59.6667 51.4319 59.2969 51.4319C58.9062 51.4319 58.599 51.3199 58.375 51.0959C58.1562 50.8668 58.0469 50.5413 58.0469 50.1194Z" fill="url(#paint4_linear_78_260)"/>
<defs>
<linearGradient id="paint0_linear_78_260" x1="50.8347" y1="0" x2="16.4626" y2="0" gradientUnits="userSpaceOnUse">
<stop stop-color="#DF78D9" stop-opacity="0.83"/>
<stop offset="1" stop-color="#978FE8"/>
</linearGradient>
<linearGradient id="paint1_linear_78_260" x1="50.8342" y1="62.5002" x2="16.4618" y2="62.5002" gradientUnits="userSpaceOnUse">
<stop stop-color="#DF78D9" stop-opacity="0.83"/>
<stop offset="1" stop-color="#978FE8"/>
</linearGradient>
<linearGradient id="paint2_linear_78_260" x1="52.6206" y1="6.25067" x2="41.8792" y2="6.25067" gradientUnits="userSpaceOnUse">
<stop stop-color="#DF78D9" stop-opacity="0.83"/>
<stop offset="1" stop-color="#978FE8"/>
</linearGradient>
<linearGradient id="paint3_linear_78_260" x1="54.1333" y1="32.5004" x2="12.6" y2="32.5004" gradientUnits="userSpaceOnUse">
<stop stop-color="#DF78D9" stop-opacity="0.83"/>
<stop offset="1" stop-color="#978FE8"/>
</linearGradient>
<linearGradient id="paint4_linear_78_260" x1="54.081" y1="34.2522" x2="20.1523" y2="34.2522" gradientUnits="userSpaceOnUse">
<stop stop-color="#DF78D9" stop-opacity="0.83"/>
<stop offset="1" stop-color="#978FE8"/>
</linearGradient>
</defs>
</svg>
