<svg width="63" height="60" viewBox="0 0 63 60" fill="none" xmlns="http://www.w3.org/2000/svg">
<path d="M50.1716 12.5754H28.2883C26.6159 12.5754 25.2637 13.9407 25.2637 15.6294V26.4078C25.2637 28.0964 26.6158 29.4618 28.2883 29.4618H50.1716C51.844 29.4618 53.1962 28.0965 53.1962 26.4078V15.6294C53.1962 13.9408 51.8618 12.5754 50.1716 12.5754V12.5754ZM50.7053 26.4078C50.7053 26.7132 50.474 26.9467 50.1716 26.9467H28.2883C27.9858 26.9467 27.7545 26.7132 27.7545 26.4078V15.6294C27.7545 15.324 27.9858 15.0905 28.2883 15.0905H50.1716C50.4741 15.0905 50.7053 15.324 50.7053 15.6294V26.4078Z" fill="url(#paint0_linear_500_1657)"/>
<path d="M58.178 0H20.0509C17.4 0 15.3006 2.17359 15.3006 4.85026V23.1732H4.80366C2.15271 23.1732 0 25.293 0 27.9696V51.0359C0 55.976 3.98529 60 8.87793 60H52.2184C58.1607 60 63 55.1138 63 49.1138V4.85026C62.9822 2.17359 60.8473 0 58.1784 0H58.178ZM8.89534 57.4851C5.37266 57.4851 2.4904 54.593 2.4904 51.0359V27.9696C2.4904 26.6762 3.52232 25.6881 4.80334 25.6881H15.3003V51.0358C15.3003 54.5926 12.418 57.4849 8.89534 57.4849V57.4851ZM60.4911 49.1138C60.4911 53.7305 56.7727 57.4851 52.2002 57.4851H15.0345C16.7068 55.8683 17.7921 53.5689 17.7921 51.0359V4.85076C17.7921 3.55734 18.7885 2.51538 20.0517 2.51538H58.1788C59.4598 2.51538 60.4917 3.55731 60.4917 4.85076L60.4911 49.1138Z" fill="url(#paint1_linear_500_1657)"/>
<path d="M25.9746 36.2872H43.7669V38.8021H25.9746V36.2872Z" fill="url(#paint2_linear_500_1657)"/>
<path d="M25.9746 46.5261H52.3068V49.041H25.9746V46.5261Z" fill="url(#paint3_linear_500_1657)"/>
<defs>
<linearGradient id="paint0_linear_500_1657" x1="46.8648" y1="12.5754" x2="30.2915" y2="12.5754" gradientUnits="userSpaceOnUse">
<stop stop-color="#DF78D9" stop-opacity="0.83"/>
<stop offset="1" stop-color="#978FE8"/>
</linearGradient>
<linearGradient id="paint1_linear_500_1657" x1="48.72" y1="0" x2="11.34" y2="0" gradientUnits="userSpaceOnUse">
<stop stop-color="#DF78D9" stop-opacity="0.83"/>
<stop offset="1" stop-color="#978FE8"/>
</linearGradient>
<linearGradient id="paint2_linear_500_1657" x1="39.734" y1="36.2872" x2="29.1772" y2="36.2872" gradientUnits="userSpaceOnUse">
<stop stop-color="#DF78D9" stop-opacity="0.83"/>
<stop offset="1" stop-color="#978FE8"/>
</linearGradient>
<linearGradient id="paint3_linear_500_1657" x1="46.3382" y1="46.5261" x2="30.7144" y2="46.5261" gradientUnits="userSpaceOnUse">
<stop stop-color="#DF78D9" stop-opacity="0.83"/>
<stop offset="1" stop-color="#978FE8"/>
</linearGradient>
</defs>
</svg>
