<svg width="65" height="79" viewBox="0 0 65 79" fill="none" xmlns="http://www.w3.org/2000/svg">
<path d="M26.4419 45.6883C26.4419 47.1724 25.9969 48.4445 24.8842 49.2925C23.7716 50.1406 22.4364 50.5646 20.6562 50.5646H18.6535V55.441H15.5381V40.5999H20.6562C22.4364 40.5999 23.9941 41.0239 24.8842 41.872C25.7743 42.7201 26.4419 43.9922 26.4419 45.6883ZM23.3265 45.6883C23.3265 45.0522 23.104 44.4162 22.659 43.9922C22.2139 43.5681 21.5463 43.3561 20.6562 43.3561H18.6535V48.2325H20.6562C21.5463 48.2325 22.2139 48.0204 22.659 47.5964C23.104 46.9604 23.3265 46.3243 23.3265 45.6883Z" fill="url(#paint0_linear_96_1118)"/>
<path d="M40.9802 48.0204C40.9802 50.5646 40.3139 52.2608 38.9812 53.5328C37.6485 54.8049 35.6495 55.441 32.9841 55.441H27.6533V40.5999H32.9841C35.4274 40.5999 37.2043 41.236 38.7591 42.5081C40.3139 43.9922 40.9802 45.6883 40.9802 48.0204ZM37.8706 48.0204C37.8706 46.5363 37.4264 45.4763 36.5379 44.6282C35.6495 43.7801 34.5389 43.3561 32.9841 43.3561H30.3187V53.1088H32.5399C36.3158 52.8968 37.8706 51.4127 37.8706 48.0204Z" fill="url(#paint1_linear_96_1118)"/>
<path d="M53.0956 40.5999V43.1441H46.3336V46.5363H52.8702V49.0805H46.3336V55.441H43.4033V40.5999H53.0956Z" fill="url(#paint2_linear_96_1118)"/>
<path d="M58.6667 35.4546H5.33333C4.53333 35.4546 4 35.0043 4 34.329V2.13854C4 1.46322 4.53333 1.013 5.33333 1.013H37.3333C37.6 1.013 38.1333 1.23811 38.4 1.23811L59.7333 19.4719C60 19.697 60 19.9221 60 20.3723V34.329C60 34.7792 59.4667 35.4546 58.6667 35.4546ZM6.66667 33.2035H57.3333V20.8225L36.8 3.26408H6.66667V33.2035Z" fill="url(#paint3_linear_96_1118)" stroke="url(#paint4_linear_96_1118)"/>
<path d="M59.6667 78H6.33333C5.53333 78 5 77.3112 5 76.2779V62.5013C5 61.4681 5.53333 60.7792 6.33333 60.7792H59.6667C60.4667 60.7792 61 61.4681 61 62.5013V76.2779C61 77.3112 60.4667 78 59.6667 78ZM7.66667 74.5559H58.3333V64.2234H7.66667V74.5559Z" fill="url(#paint5_linear_96_1118)" stroke="url(#paint6_linear_96_1118)"/>
<path d="M57.5077 20.0836L40.6049 22.2975C39.9711 22.3805 39.4927 21.9991 39.4091 21.3439L37.1509 3.65273C37.0952 3.21591 37.2507 2.75142 37.6454 2.47766C38.0401 2.2039 38.4905 2.36696 38.7297 2.5577L57.6515 17.8442C57.8907 18.0349 58.1299 18.2256 58.1856 18.6624C58.5084 19.5084 58.1416 20.0006 57.5077 20.0836ZM41.3826 19.9751L54.6935 18.2316L39.5983 5.99689L41.3826 19.9751Z" fill="url(#paint7_linear_96_1118)" stroke="url(#paint8_linear_96_1118)"/>
<path d="M62.9138 63.4323H2.08621C1.43448 63.4323 1 62.8827 1 62.0581V35.1244C1 34.2999 1.43448 33.7502 2.08621 33.7502H62.9138C63.5655 33.7502 64 34.2999 64 35.1244V62.0581C64 62.8827 63.5655 63.4323 62.9138 63.4323ZM3.17241 60.684H61.8276V36.4985H3.17241V60.684Z" fill="url(#paint9_linear_96_1118)" stroke="url(#paint10_linear_96_1118)"/>
<defs>
<linearGradient id="paint0_linear_96_1118" x1="23.9704" y1="40.5999" x2="17.5008" y2="40.5999" gradientUnits="userSpaceOnUse">
<stop stop-color="#DF78D9" stop-opacity="0.83"/>
<stop offset="1" stop-color="#978FE8"/>
</linearGradient>
<linearGradient id="paint1_linear_96_1118" x1="37.9595" y1="40.5999" x2="30.0522" y2="40.5999" gradientUnits="userSpaceOnUse">
<stop stop-color="#DF78D9" stop-opacity="0.83"/>
<stop offset="1" stop-color="#978FE8"/>
</linearGradient>
<linearGradient id="paint2_linear_96_1118" x1="50.8987" y1="40.5999" x2="45.1479" y2="40.5999" gradientUnits="userSpaceOnUse">
<stop stop-color="#DF78D9" stop-opacity="0.83"/>
<stop offset="1" stop-color="#978FE8"/>
</linearGradient>
<linearGradient id="paint3_linear_96_1118" x1="47.3067" y1="1.013" x2="14.08" y2="1.013" gradientUnits="userSpaceOnUse">
<stop stop-color="#DF78D9" stop-opacity="0.83"/>
<stop offset="1" stop-color="#978FE8"/>
</linearGradient>
<linearGradient id="paint4_linear_96_1118" x1="47.3067" y1="1.013" x2="14.08" y2="1.013" gradientUnits="userSpaceOnUse">
<stop stop-color="#DF78D9" stop-opacity="0.83"/>
<stop offset="1" stop-color="#978FE8"/>
</linearGradient>
<linearGradient id="paint5_linear_96_1118" x1="48.3067" y1="60.7792" x2="15.08" y2="60.7792" gradientUnits="userSpaceOnUse">
<stop stop-color="#DF78D9" stop-opacity="0.83"/>
<stop offset="1" stop-color="#978FE8"/>
</linearGradient>
<linearGradient id="paint6_linear_96_1118" x1="48.3067" y1="60.7792" x2="15.08" y2="60.7792" gradientUnits="userSpaceOnUse">
<stop stop-color="#DF78D9" stop-opacity="0.83"/>
<stop offset="1" stop-color="#978FE8"/>
</linearGradient>
<linearGradient id="paint7_linear_96_1118" x1="51.5846" y1="0.559925" x2="40.39" y2="1.98884" gradientUnits="userSpaceOnUse">
<stop stop-color="#DF78D9" stop-opacity="0.83"/>
<stop offset="1" stop-color="#978FE8"/>
</linearGradient>
<linearGradient id="paint8_linear_96_1118" x1="51.5846" y1="0.559925" x2="40.39" y2="1.98884" gradientUnits="userSpaceOnUse">
<stop stop-color="#DF78D9" stop-opacity="0.83"/>
<stop offset="1" stop-color="#978FE8"/>
</linearGradient>
<linearGradient id="paint9_linear_96_1118" x1="49.72" y1="33.7502" x2="12.34" y2="33.7502" gradientUnits="userSpaceOnUse">
<stop stop-color="#DF78D9" stop-opacity="0.83"/>
<stop offset="1" stop-color="#978FE8"/>
</linearGradient>
<linearGradient id="paint10_linear_96_1118" x1="49.72" y1="33.7502" x2="12.34" y2="33.7502" gradientUnits="userSpaceOnUse">
<stop stop-color="#DF78D9" stop-opacity="0.83"/>
<stop offset="1" stop-color="#978FE8"/>
</linearGradient>
</defs>
</svg>
