<svg width="98" height="80" viewBox="0 0 98 80" fill="none" xmlns="http://www.w3.org/2000/svg">
<circle opacity="0.5" cx="49" cy="40" r="40" fill="url(#paint0_linear_93_1186)"/>
<path d="M33.3359 19.8446C33.3359 25.931 28.4019 30.8643 22.3156 30.8643C16.2292 30.8643 11.2959 25.931 11.2959 19.8446C11.2959 13.7582 16.2292 8.82422 22.3156 8.82422C28.4019 8.82422 33.3359 13.7582 33.3359 19.8446Z" fill="url(#paint1_linear_93_1186)"/>
<path d="M93.6893 8.00069H47.4464C45.1806 8.00069 43.3271 9.85416 43.3271 12.12V43.7382V43.8409C44.0484 44.0471 45.3868 44.356 47.4464 44.356V12.1199H93.6893V48.5786H58.0545C58.2607 49.1965 58.4661 49.7116 58.5696 50.3294C58.6723 51.1534 58.6723 51.8739 58.4668 52.698H93.6897C95.9555 52.698 97.809 50.8445 97.809 48.5787V12.1199C97.809 9.85414 95.9555 7.99994 93.6897 7.99994L93.6893 8.00069Z" fill="url(#paint2_linear_93_1186)"/>
<path d="M53.8315 47.9612L60.3201 31.5858C60.7317 30.5556 60.2173 29.32 59.1871 28.9082C58.1569 28.4966 56.9213 29.011 56.5096 30.0412L49.6092 47.2406C47.446 47.4468 43.7383 47.4468 41.7821 46.4166C40.4429 45.7988 39.0011 42.2974 38.3834 40.7519C38.0744 40.0307 37.7655 39.3101 37.5593 38.8985C36.5291 36.8388 34.2633 34.3667 29.6289 34.3667H15.6221C12.017 34.3667 9.23684 36.2202 7.28002 39.7224L6.86837 40.5464C5.0149 43.9451 3.16069 47.5494 2.44013 50.2278C1.71812 53.2134 0.0700479 61.1439 0.0700479 61.4528C-0.341603 63.7186 1.10025 65.9846 3.36612 66.3962C3.67504 66.4997 3.98396 66.6024 4.19014 66.6024C6.14715 66.6024 7.89781 65.1606 8.30941 63.2037C8.30941 63.101 9.85398 55.1704 10.5752 52.5956C10.8841 51.5654 11.502 50.0209 12.326 48.4764L11.8109 66.8087C11.8109 68.3533 12.9438 69.5897 14.4884 69.5897H30.1432C31.6878 69.5897 32.8208 68.354 32.8208 66.8087L32.203 47.8584C33.5421 50.3304 35.3955 52.9052 38.1765 54.2437C43.4288 56.7156 50.9475 55.7882 51.7716 55.6855C54.1402 55.3766 55.6855 53.2135 55.3767 50.9476C55.3767 49.6092 54.7588 48.6825 53.8314 47.9612L53.8315 47.9612Z" fill="url(#paint3_linear_93_1186)"/>
<path d="M85.9643 18.2998H55.17C54.037 18.2998 53.1104 19.2265 53.1104 20.3594C53.1104 21.4923 54.0371 22.419 55.17 22.419L85.9643 22.4197C87.0972 22.4197 88.0239 21.493 88.0239 20.3601C88.0239 19.2272 87.0971 18.2997 85.9643 18.2997V18.2998Z" fill="url(#paint4_linear_93_1186)"/>
<path d="M85.9636 28.2899H67.1163C65.9833 28.2899 65.0566 29.2166 65.0566 30.3495C65.0566 31.4824 65.9834 32.4091 67.1163 32.4091L85.9636 32.4099C87.0965 32.4099 88.0232 31.4831 88.0232 30.3502C88.0232 29.2173 87.0965 28.2899 85.9636 28.2899V28.2899Z" fill="url(#paint5_linear_93_1186)"/>
<path d="M85.9636 38.28H67.1163C65.9833 38.28 65.0566 39.2068 65.0566 40.3397C65.0566 41.4726 65.9834 42.3993 67.1163 42.3993L85.9636 42.4C87.0965 42.4 88.0232 41.4733 88.0232 40.3404C88.0232 39.2067 87.0965 38.28 85.9636 38.28V38.28Z" fill="url(#paint6_linear_93_1186)"/>
<defs>
<linearGradient id="paint0_linear_93_1186" x1="49.2878" y1="-22.9885" x2="48.5532" y2="79.9968" gradientUnits="userSpaceOnUse">
<stop offset="0.275862" stop-color="#08C2AF" stop-opacity="0.88"/>
<stop offset="1" stop-color="#F368FF" stop-opacity="0.83"/>
</linearGradient>
<linearGradient id="paint1_linear_93_1186" x1="28.3402" y1="8.82422" x2="15.2631" y2="8.82422" gradientUnits="userSpaceOnUse">
<stop stop-color="#DF78D9" stop-opacity="0.83"/>
<stop offset="1" stop-color="#978FE8"/>
</linearGradient>
<linearGradient id="paint2_linear_93_1186" x1="85.4598" y1="7.99994" x2="53.1339" y2="7.99994" gradientUnits="userSpaceOnUse">
<stop stop-color="#DF78D9" stop-opacity="0.83"/>
<stop offset="1" stop-color="#978FE8"/>
</linearGradient>
<linearGradient id="paint3_linear_93_1186" x1="46.7574" y1="28.7661" x2="10.8832" y2="28.7661" gradientUnits="userSpaceOnUse">
<stop stop-color="#DF78D9" stop-opacity="0.83"/>
<stop offset="1" stop-color="#978FE8"/>
</linearGradient>
<linearGradient id="paint4_linear_93_1186" x1="80.1102" y1="18.2997" x2="59.3948" y2="18.2997" gradientUnits="userSpaceOnUse">
<stop stop-color="#DF78D9" stop-opacity="0.83"/>
<stop offset="1" stop-color="#978FE8"/>
</linearGradient>
<linearGradient id="paint5_linear_93_1186" x1="82.8175" y1="28.2899" x2="69.1906" y2="28.2899" gradientUnits="userSpaceOnUse">
<stop stop-color="#DF78D9" stop-opacity="0.83"/>
<stop offset="1" stop-color="#978FE8"/>
</linearGradient>
<linearGradient id="paint6_linear_93_1186" x1="82.8175" y1="38.28" x2="69.1906" y2="38.28" gradientUnits="userSpaceOnUse">
<stop stop-color="#DF78D9" stop-opacity="0.83"/>
<stop offset="1" stop-color="#978FE8"/>
</linearGradient>
</defs>
</svg>
