<svg width="63" height="78" viewBox="0 0 63 78" fill="none" xmlns="http://www.w3.org/2000/svg">
<path d="M31.4994 27.0062C21.8007 27.0062 13.9258 34.806 13.9258 44.4124C13.9258 54.0187 21.8006 61.8187 31.4994 61.8187C41.1982 61.8187 49.073 54.0188 49.073 44.4124C49.073 34.8061 41.1982 27.0062 31.4994 27.0062ZM31.4994 58.2881C23.7905 58.2881 17.4901 52.0483 17.4901 44.4123C17.4901 36.7768 23.7904 30.5364 31.4994 30.5364C39.2084 30.5364 45.5087 36.7762 45.5087 44.4123C45.5087 52.0483 39.2916 58.2881 31.4994 58.2881Z" fill="url(#paint0_linear_96_1149)"/>
<path d="M29.511 38.2546C28.3505 37.5976 26.9414 38.3365 26.9414 39.6503V49.1746C26.9414 50.4884 28.4332 51.3092 29.511 50.5703L37.2199 45.8082C38.2977 45.1513 38.2977 43.5912 37.2199 42.9342L29.511 38.2546Z" fill="url(#paint1_linear_96_1149)"/>
<path d="M61.1763 19.7873L43.0225 1.80631C41.862 0.656869 40.2869 0 38.7118 0H6.13433C4.47659 0 2.9842 0.656913 1.82368 1.80631C0.663185 2.95575 0 4.43337 0 6.07591V71.9241C0 75.2905 2.73551 78 6.13433 78H56.8657C60.2645 78 63 75.2905 63 71.9241V24.0569C63 22.4973 62.3368 20.9373 61.1763 19.7879V19.7873ZM57.6948 21.2649H44.2654C42.7736 21.2649 41.5299 20.0335 41.5299 18.5554L41.5305 5.33653L57.6948 21.2649ZM56.8656 74.4689H6.13424C4.72511 74.4689 3.56466 73.3195 3.56466 71.9238V6.07562C3.56466 5.41871 3.8133 4.76181 4.31058 4.26931C4.80786 3.77677 5.47107 3.5305 6.13426 3.5305H37.9657V18.5557C37.9657 22.0041 40.7839 24.7955 44.2655 24.7955H59.4352V71.9238C59.4352 73.3189 58.2747 74.4689 56.8656 74.4689L56.8656 74.4689Z" fill="url(#paint2_linear_96_1149)"/>
<defs>
<linearGradient id="paint0_linear_96_1149" x1="41.1063" y1="27.0062" x2="20.2523" y2="27.0062" gradientUnits="userSpaceOnUse">
<stop stop-color="#DF78D9" stop-opacity="0.83"/>
<stop offset="1" stop-color="#978FE8"/>
</linearGradient>
<linearGradient id="paint1_linear_96_1149" x1="35.5152" y1="38.0107" x2="28.937" y2="38.0107" gradientUnits="userSpaceOnUse">
<stop stop-color="#DF78D9" stop-opacity="0.83"/>
<stop offset="1" stop-color="#978FE8"/>
</linearGradient>
<linearGradient id="paint2_linear_96_1149" x1="48.72" y1="0" x2="11.34" y2="0" gradientUnits="userSpaceOnUse">
<stop stop-color="#DF78D9" stop-opacity="0.83"/>
<stop offset="1" stop-color="#978FE8"/>
</linearGradient>
</defs>
</svg>
