<svg width="47" height="47" viewBox="0 0 47 47" fill="none" xmlns="http://www.w3.org/2000/svg">
<path d="M21.821 0.0586205C16.2105 0.475605 11.0929 2.78254 7.07456 6.70866C1.78903 11.8641 -0.745433 19.1639 0.19145 26.4963C1.3612 35.6645 7.82732 43.3001 16.7088 46.0024C23.5756 48.0927 31.2169 46.8526 37.0386 42.7099C44.1925 37.614 47.9129 29.1607 46.8082 20.507C45.6384 11.3388 39.1723 3.70315 30.2908 1.00089C27.6481 0.194004 24.5667 -0.14716 21.821 0.0586205ZM23.6135 14.6205C24.8158 14.7396 25.4169 14.9291 25.6877 15.2811C25.7581 15.3786 25.8718 15.6169 25.9368 15.8118C26.0776 16.2234 26.083 16.6945 25.9963 20.2145C25.9422 22.4132 25.9747 23.0901 26.1534 23.5774C26.3646 24.1352 26.8303 24.3897 27.2419 24.1786C27.6156 23.9836 28.4875 23.0251 29.0561 22.1749C30.3721 20.2254 31.1736 18.7145 32.1375 16.3805C32.3325 15.9202 32.5924 15.6169 32.8632 15.5465C32.9715 15.514 34.5041 15.4869 36.3887 15.4815L39.7192 15.4707L40.0009 15.5898C40.3637 15.7523 40.5045 15.9635 40.5045 16.348C40.5045 17.079 39.7409 18.5791 38.4304 20.4149C38.2516 20.6694 37.5747 21.5684 36.9303 22.4186C35.506 24.2923 35.1973 24.7309 34.9807 25.1858C34.7099 25.7598 34.7749 26.231 35.2027 26.7887C35.3273 26.9458 35.9555 27.5794 36.5999 28.1967C38.4033 29.9242 39.221 30.834 39.8871 31.8304C40.3637 32.5507 40.5478 33.0814 40.472 33.5363C40.4341 33.7854 40.185 34.0832 39.9034 34.2294C39.5676 34.3973 39.0531 34.4298 36.2208 34.4677L33.5402 34.5056L33.1069 34.3594C32.0021 33.9912 31.2656 33.3792 29.5922 31.4405C28.6662 30.3683 27.9784 29.843 27.5019 29.8376C27.0632 29.8376 26.5054 30.4224 26.2671 31.1481C26.1047 31.6355 26.0451 32.0091 25.9963 32.8539C25.9368 33.8504 25.8176 34.0832 25.2057 34.3377C24.9837 34.4352 22.2217 34.4677 21.4906 34.3919C20.023 34.2294 18.6638 33.7691 17.3153 32.9731C15.3603 31.825 14.1635 30.7961 12.88 29.1607C10.6488 26.3122 9.12704 23.8861 7.28035 20.2254C6.5655 18.8011 5.7261 16.9599 5.59071 16.5213C5.45532 16.0664 5.65028 15.6927 6.09435 15.5519C6.24599 15.5032 7.09081 15.4761 9.04039 15.449L11.7752 15.4219L12.0947 15.5411C12.5984 15.736 12.8096 15.9851 13.1508 16.8137C13.4432 17.5123 15.0191 20.6748 15.5119 21.5575C16.0156 22.4511 16.5517 23.1984 17.012 23.6424C17.5807 24.2002 17.8352 24.3356 18.2359 24.3031C18.5771 24.2706 18.6692 24.1948 18.8804 23.7345C19.3948 22.6243 19.4761 18.8715 19.0158 17.3985C18.7504 16.5592 18.3551 16.2397 17.2611 16.0068C17.0716 15.9635 17.0716 15.8985 17.2449 15.644C17.6673 15.0375 18.4201 14.745 19.8552 14.6259C20.6404 14.5609 22.9691 14.5555 23.6135 14.6205Z" fill="#3675D2"/>
</svg>
