<svg width="60" height="60" viewBox="0 0 60 60" fill="none" xmlns="http://www.w3.org/2000/svg">
<path d="M27.8566 0.0748363C20.6943 0.607153 14.1611 3.55217 9.03136 8.56425C2.28386 15.1456 -0.951616 24.4646 0.244405 33.8251C1.7377 45.5291 9.99232 55.2768 21.3303 58.7264C30.0965 61.3949 39.8514 59.8118 47.2833 54.5232C56.4159 48.0179 61.1654 37.2264 59.7551 26.1791C58.2618 14.475 50.0072 4.72742 38.6692 1.27773C35.2954 0.247666 31.3617 -0.187865 27.8566 0.0748363ZM30.1449 18.6644C31.6797 18.8165 32.4471 19.0585 32.7928 19.5078C32.8826 19.6323 33.0278 19.9365 33.1108 20.1853C33.2905 20.7107 33.2974 21.3122 33.1868 25.8058C33.1177 28.6125 33.1592 29.4767 33.3873 30.0989C33.6569 30.8109 34.2515 31.1359 34.7769 30.8662C35.2539 30.6174 36.367 29.3937 37.0929 28.3084C38.7729 25.8196 39.7961 23.8908 41.0266 20.9112C41.2755 20.3236 41.6074 19.9365 41.953 19.8466C42.0913 19.8051 44.0478 19.7705 46.4537 19.7636L50.7054 19.7498L51.0649 19.9019C51.5281 20.1093 51.7079 20.3789 51.7079 20.8697C51.7079 21.803 50.7331 23.718 49.06 26.0616C48.8319 26.3865 47.9677 27.5341 47.145 28.6194C45.3268 31.0114 44.9327 31.5714 44.6562 32.1521C44.3105 32.8849 44.3935 33.4863 44.9396 34.1984C45.0986 34.3989 45.9006 35.2077 46.7233 35.9958C49.0255 38.2011 50.0694 39.3626 50.9197 40.6346C51.5281 41.554 51.7632 42.2315 51.6664 42.8123C51.618 43.1303 51.3 43.5105 50.9405 43.6971C50.5118 43.9115 49.8551 43.9529 46.2394 44.0013L42.8172 44.0497L42.2641 43.8631C40.8538 43.393 39.9136 42.6118 37.7773 40.1368C36.5951 38.768 35.7171 38.0974 35.1088 38.0905C34.5488 38.0905 33.8367 38.8372 33.5325 39.7635C33.3251 40.3857 33.249 40.8627 33.1868 41.9412C33.1108 43.2132 32.9587 43.5105 32.1775 43.8354C31.894 43.9598 28.3682 44.0013 27.4349 43.9045C25.5613 43.6971 23.8261 43.1095 22.1046 42.0933C19.6089 40.6277 18.081 39.3142 16.4425 37.2264C13.5942 33.59 11.6515 30.4929 9.29407 25.8196C8.38149 24.0014 7.30992 21.6509 7.13708 21.091C6.96424 20.5103 7.21313 20.0332 7.78003 19.8535C7.9736 19.7913 9.0521 19.7567 11.5409 19.7222L15.0322 19.6876L15.4401 19.8397C16.083 20.0886 16.3527 20.4066 16.7882 21.4643C17.1615 22.3561 19.1733 26.3934 19.8025 27.5202C20.4454 28.6609 21.1298 29.6149 21.7175 30.1818C22.4434 30.8939 22.7683 31.0667 23.2799 31.0252C23.7155 30.9838 23.833 30.887 24.1026 30.2994C24.7594 28.8821 24.8631 24.0913 24.2754 22.2109C23.9367 21.1394 23.432 20.7315 22.0355 20.4342C21.7935 20.3789 21.7935 20.2959 22.0148 19.971C22.554 19.1968 23.515 18.8234 25.347 18.6713C26.3495 18.5884 29.3222 18.5815 30.1449 18.6644Z" fill="#40ACFF"/>
<path d="M27.8566 0.0748363C20.6943 0.607153 14.1611 3.55217 9.03136 8.56425C2.28386 15.1456 -0.951616 24.4646 0.244405 33.8251C1.7377 45.5291 9.99232 55.2768 21.3303 58.7264C30.0965 61.3949 39.8514 59.8118 47.2833 54.5232C56.4159 48.0179 61.1654 37.2264 59.7551 26.1791C58.2618 14.475 50.0072 4.72742 38.6692 1.27773C35.2954 0.247666 31.3617 -0.187865 27.8566 0.0748363ZM30.1449 18.6644C31.6797 18.8165 32.4471 19.0585 32.7928 19.5078C32.8826 19.6323 33.0278 19.9365 33.1108 20.1853C33.2905 20.7107 33.2974 21.3122 33.1868 25.8058C33.1177 28.6125 33.1592 29.4767 33.3873 30.0989C33.6569 30.8109 34.2515 31.1359 34.7769 30.8662C35.2539 30.6174 36.367 29.3937 37.0929 28.3084C38.7729 25.8196 39.7961 23.8908 41.0266 20.9112C41.2755 20.3236 41.6074 19.9365 41.953 19.8466C42.0913 19.8051 44.0478 19.7705 46.4537 19.7636L50.7054 19.7498L51.0649 19.9019C51.5281 20.1093 51.7079 20.3789 51.7079 20.8697C51.7079 21.803 50.7331 23.718 49.06 26.0616C48.8319 26.3865 47.9677 27.5341 47.145 28.6194C45.3268 31.0114 44.9327 31.5714 44.6562 32.1521C44.3105 32.8849 44.3935 33.4863 44.9396 34.1984C45.0986 34.3989 45.9006 35.2077 46.7233 35.9958C49.0255 38.2011 50.0694 39.3626 50.9197 40.6346C51.5281 41.554 51.7632 42.2315 51.6664 42.8123C51.618 43.1303 51.3 43.5105 50.9405 43.6971C50.5118 43.9115 49.8551 43.9529 46.2394 44.0013L42.8172 44.0497L42.2641 43.8631C40.8538 43.393 39.9136 42.6118 37.7773 40.1368C36.5951 38.768 35.7171 38.0974 35.1088 38.0905C34.5488 38.0905 33.8367 38.8372 33.5325 39.7635C33.3251 40.3857 33.249 40.8627 33.1868 41.9412C33.1108 43.2132 32.9587 43.5105 32.1775 43.8354C31.894 43.9598 28.3682 44.0013 27.4349 43.9045C25.5613 43.6971 23.8261 43.1095 22.1046 42.0933C19.6089 40.6277 18.081 39.3142 16.4425 37.2264C13.5942 33.59 11.6515 30.4929 9.29407 25.8196C8.38149 24.0014 7.30992 21.6509 7.13708 21.091C6.96424 20.5103 7.21313 20.0332 7.78003 19.8535C7.9736 19.7913 9.0521 19.7567 11.5409 19.7222L15.0322 19.6876L15.4401 19.8397C16.083 20.0886 16.3527 20.4066 16.7882 21.4643C17.1615 22.3561 19.1733 26.3934 19.8025 27.5202C20.4454 28.6609 21.1298 29.6149 21.7175 30.1818C22.4434 30.8939 22.7683 31.0667 23.2799 31.0252C23.7155 30.9838 23.833 30.887 24.1026 30.2994C24.7594 28.8821 24.8631 24.0913 24.2754 22.2109C23.9367 21.1394 23.432 20.7315 22.0355 20.4342C21.7935 20.3789 21.7935 20.2959 22.0148 19.971C22.554 19.1968 23.515 18.8234 25.347 18.6713C26.3495 18.5884 29.3222 18.5815 30.1449 18.6644Z" fill="black" fill-opacity="0.2"/>
</svg>
